<svg xmlns="http://www.w3.org/2000/svg" xmlns:xlink="http://www.w3.org/1999/xlink" width="940" zoomAndPan="magnify" viewBox="0 0 705 591.000005" height="788" preserveAspectRatio="xMidYMid meet" version="1.0"><defs><g/><clipPath id="3a93e15c65"><path d="M 162 36.328125 L 543 36.328125 L 543 489.3125 L 162 489.3125 Z M 162 36.328125 " clip-rule="nonzero"/></clipPath></defs><g clip-path="url(#3a93e15c65)"><path fill="#000000" d="M 488.1875 141.136719 C 487.417969 142.144531 487.101562 143.382812 486.710938 144.566406 C 485.894531 147.054688 485.152344 149.574219 484.367188 152.066406 C 483.765625 154.164062 482.984375 156.195312 482.027344 158.160156 C 481.675781 158.773438 481.613281 159.414062 481.839844 160.085938 C 484.007812 167.257812 484.585938 174.644531 484.753906 182.078125 C 484.9375 190.332031 484.503906 198.566406 484.046875 206.804688 C 483.835938 210.617188 483.683594 214.445312 483.417969 218.253906 C 482.859375 226.261719 482.121094 234.238281 479.875 241.996094 C 479.191406 244.375 478.308594 246.675781 477.222656 248.902344 C 475.519531 252.460938 473.203125 255.5625 470.273438 258.203125 C 467.652344 260.546875 464.960938 262.835938 462.503906 265.359375 C 461.035156 266.871094 459.621094 268.410156 458.285156 270.046875 C 456.582031 272.152344 455.160156 274.433594 454.03125 276.890625 C 452.898438 279.351562 452.089844 281.914062 451.605469 284.578125 C 451.050781 287.378906 450.738281 290.207031 450.667969 293.0625 C 450.648438 294.265625 450.769531 295.457031 451.023438 296.632812 C 451.113281 297.074219 451.246094 297.503906 451.417969 297.917969 C 451.46875 298.101562 451.5625 298.265625 451.691406 298.40625 C 451.820312 298.550781 451.976562 298.65625 452.15625 298.722656 C 452.335938 298.792969 452.519531 298.820312 452.710938 298.800781 C 452.902344 298.78125 453.082031 298.722656 453.246094 298.621094 C 453.835938 298.296875 454.382812 297.910156 454.882812 297.457031 C 456.15625 296.289062 457.292969 294.996094 458.296875 293.585938 C 460.957031 289.953125 463.367188 286.164062 465.527344 282.214844 C 467.957031 277.902344 470.328125 273.5625 472.746094 269.25 C 473.964844 267.007812 475.351562 264.875 476.910156 262.851562 C 477.582031 261.941406 478.378906 261.152344 479.292969 260.484375 C 481.25 259.160156 482.941406 259.402344 484.390625 261.292969 C 485.019531 262.136719 485.574219 263.023438 486.050781 263.960938 C 488.664062 269.015625 491.007812 274.199219 493.078125 279.503906 C 497.570312 290.457031 501.464844 301.625 504.765625 312.996094 C 506.191406 317.890625 507.371094 322.84375 508.300781 327.855469 C 509.042969 332.234375 509.253906 336.640625 508.9375 341.074219 C 508.679688 346.167969 508.128906 351.230469 507.285156 356.257812 C 505.039062 368.914062 500.574219 380.632812 492.714844 390.945312 C 488 397.046875 482.441406 402.246094 476.039062 406.542969 C 466.835938 412.816406 456.953125 417.792969 446.65625 421.945312 C 441.457031 424.050781 436.230469 426.097656 431.195312 428.621094 C 424.917969 431.714844 419.554688 435.960938 415.101562 441.355469 C 409.945312 447.597656 404.855469 453.894531 399.492188 459.964844 C 393.980469 466.203125 388.25 472.234375 381.777344 477.511719 C 377.351562 481.121094 372.65625 484.3125 367.367188 486.558594 C 363.035156 488.480469 358.507812 489.292969 353.777344 488.996094 C 350.925781 488.757812 348.175781 488.09375 345.527344 486.996094 C 342 485.511719 338.703125 483.621094 335.648438 481.3125 C 331.183594 478.003906 326.996094 474.378906 323.082031 470.433594 C 319.390625 466.8125 315.753906 463.132812 312.089844 459.480469 C 307.308594 454.71875 302.464844 450.027344 297.199219 445.789062 C 293.109375 442.480469 288.738281 439.601562 284.082031 437.15625 C 276.453125 433.15625 268.824219 429.164062 261.429688 424.734375 C 254 420.351562 246.953125 415.410156 240.300781 409.914062 C 231.03125 402.148438 223.066406 393.261719 216.976562 382.761719 C 211.84375 373.9375 208.332031 364.507812 206.445312 354.472656 C 204.480469 344.121094 203.871094 333.667969 204.101562 323.144531 C 204.210938 317.988281 204.542969 312.832031 205.152344 307.675781 C 206.449219 296.792969 208.46875 286.0625 212.273438 275.734375 C 212.929688 273.890625 213.726562 272.109375 214.664062 270.390625 C 215.078125 269.585938 215.605469 268.863281 216.246094 268.222656 C 217.554688 267.011719 218.972656 267.34375 219.589844 268.984375 C 219.828125 269.625 219.941406 270.289062 219.929688 270.972656 C 219.929688 272.378906 219.972656 273.824219 219.839844 275.242188 C 219.371094 280.613281 218.800781 285.980469 218.269531 291.351562 C 217.28125 301.363281 216.738281 311.394531 217.332031 321.441406 C 218.242188 336.96875 222.019531 351.75 229.210938 365.597656 C 234.191406 375.191406 239.722656 384.4375 246.320312 393.027344 C 249.261719 396.925781 252.515625 400.542969 256.082031 403.882812 C 258.152344 405.851562 260.421875 407.5625 262.882812 409.015625 C 264.441406 409.9375 266.109375 410.574219 267.886719 410.921875 C 269.707031 411.25 271.34375 410.898438 272.652344 409.570312 C 275.601562 406.582031 278.433594 403.476562 280.683594 399.90625 C 282.011719 397.886719 282.949219 395.699219 283.496094 393.34375 C 283.957031 391.339844 283.957031 389.335938 283.496094 387.332031 C 283.199219 386.09375 282.894531 384.855469 282.679688 383.582031 C 281.890625 378.894531 283.828125 374.402344 287.632812 372.117188 C 288.796875 371.421875 290.046875 370.929688 291.375 370.640625 C 292.703125 370.351562 294.039062 370.285156 295.390625 370.433594 C 297.414062 370.621094 299.355469 371.207031 301.332031 371.628906 C 302.207031 371.816406 303.09375 371.941406 303.96875 372.144531 C 305.726562 372.507812 307.402344 372.265625 308.988281 371.425781 C 310.195312 370.828125 311.367188 370.164062 312.496094 369.429688 C 316.675781 366.792969 320.835938 364.121094 325.007812 361.460938 C 325.765625 360.992188 326.542969 360.523438 327.316406 360.054688 C 330.554688 358.160156 334.054688 357.203125 337.808594 357.1875 C 344.179688 357.042969 350.542969 357.289062 356.886719 357.921875 C 361.207031 358.367188 365.554688 358.566406 369.867188 359.023438 C 372.707031 359.324219 375.550781 359.375 378.390625 359.539062 C 380.480469 359.648438 382.570312 359.617188 384.65625 359.445312 C 385.25 359.386719 385.832031 359.253906 386.398438 359.058594 C 387.289062 358.765625 387.511719 358.121094 387.035156 357.320312 C 386.339844 356.214844 385.410156 355.363281 384.253906 354.765625 C 382.066406 353.578125 379.757812 352.726562 377.328125 352.214844 C 370.65625 350.617188 363.875 350.132812 357.035156 350.269531 C 351.71875 350.371094 346.410156 350.738281 341.105469 351.207031 C 338.269531 351.46875 335.425781 351.644531 332.582031 351.769531 C 331.300781 351.855469 330.089844 352.207031 328.957031 352.816406 C 324.105469 355.15625 319.164062 357.320312 313.925781 358.679688 C 308.957031 360.003906 303.914062 360.449219 298.792969 360.015625 C 295.796875 359.792969 292.859375 359.25 289.984375 358.382812 C 280.144531 355.257812 273.644531 348.699219 270.351562 338.941406 C 268.84375 334.273438 268.0625 329.488281 268.007812 324.582031 C 267.933594 318.726562 268.339844 312.902344 269.226562 307.109375 C 270.082031 301.027344 271.175781 294.984375 272.507812 288.988281 C 276.152344 272.730469 281.972656 257.292969 289.964844 242.675781 C 296.871094 229.964844 304.367188 217.597656 311.882812 205.242188 C 315.503906 199.289062 319.085938 193.3125 322.660156 187.34375 C 323.230469 186.441406 323.699219 185.503906 324.167969 184.566406 C 323.558594 184.148438 323.316406 184.6875 323.042969 184.921875 C 319.265625 188.121094 315.460938 191.28125 311.476562 194.214844 C 309.144531 195.980469 306.683594 197.542969 304.089844 198.902344 C 302.953125 199.476562 301.773438 199.945312 300.550781 200.308594 C 299.859375 200.515625 299.160156 200.585938 298.441406 200.507812 C 297.726562 200.429688 297.054688 200.21875 296.425781 199.867188 C 294.976562 199.074219 293.59375 198.183594 292.273438 197.191406 C 288.453125 194.410156 284.851562 191.351562 281.296875 188.242188 C 275.539062 183.210938 269.949219 178 264.523438 172.605469 C 263.734375 171.855469 263.027344 171.035156 262.40625 170.140625 C 261.789062 169.246094 261.265625 168.300781 260.839844 167.296875 C 260.414062 166.292969 260.097656 165.261719 259.886719 164.191406 C 259.675781 163.125 259.574219 162.046875 259.585938 160.957031 C 259.585938 160.734375 259.585938 160.488281 259.585938 160.28125 C 259.546875 159.8125 259.300781 159.59375 258.867188 159.679688 C 258.792969 159.683594 258.71875 159.699219 258.648438 159.714844 C 254.707031 161.144531 251.152344 163.171875 248.53125 166.527344 C 247.464844 167.898438 246.636719 169.402344 246.050781 171.039062 C 245.464844 172.671875 245.148438 174.359375 245.101562 176.097656 C 244.902344 180.488281 245.652344 184.765625 246.695312 188.992188 C 248.4375 195.75 250.679688 202.339844 253.417969 208.757812 C 256.800781 216.921875 260.332031 225.023438 263.753906 233.167969 C 264.742188 235.511719 265.628906 237.90625 266.480469 240.304688 C 267.742188 244.003906 268.582031 247.796875 269.003906 251.683594 C 269.808594 258.394531 270.070312 265.128906 269.785156 271.886719 C 269.679688 276.84375 269.109375 281.75 268.070312 286.601562 C 267.785156 288.003906 267.34375 289.351562 266.75 290.652344 C 266.433594 291.335938 266.046875 291.972656 265.585938 292.566406 C 264.496094 293.90625 263.183594 294.136719 261.578125 293.378906 C 260.503906 292.824219 259.546875 292.113281 258.710938 291.242188 C 257.101562 289.660156 255.644531 287.949219 254.332031 286.117188 C 250.070312 280.203125 246.398438 273.945312 243.316406 267.339844 C 238.457031 257.324219 234.796875 246.886719 232.335938 236.027344 C 230.84375 229.507812 230 222.902344 229.800781 216.214844 C 229.667969 210.894531 229.410156 205.574219 229.546875 200.25 C 229.761719 191.855469 230.074219 183.46875 230.578125 175.085938 C 230.945312 169.023438 231.332031 162.960938 231.195312 156.878906 C 231.132812 154.179688 230.894531 151.496094 230.480469 148.828125 C 229.972656 145.546875 228.605469 142.515625 227.414062 139.453125 C 226.480469 136.996094 225.332031 134.640625 223.976562 132.390625 C 223.3125 131.292969 222.515625 130.304688 221.585938 129.421875 C 221.296875 129.152344 220.96875 128.941406 220.605469 128.785156 C 220.238281 128.628906 219.859375 128.542969 219.464844 128.519531 C 219.066406 128.5 218.679688 128.542969 218.300781 128.660156 C 217.921875 128.773438 217.570312 128.945312 217.253906 129.183594 C 216.167969 129.996094 215.257812 130.972656 214.53125 132.117188 C 213.515625 133.601562 212.554688 135.125 211.484375 136.570312 C 210.515625 137.929688 209.328125 139.054688 207.917969 139.945312 C 206.507812 140.835938 204.984375 141.429688 203.34375 141.726562 C 202.089844 141.960938 200.839844 142.195312 199.59375 142.425781 C 198.417969 142.648438 197.222656 142.8125 196.074219 143.136719 C 194.800781 143.488281 193.519531 143.511719 192.234375 143.203125 C 191.828125 144.566406 191.621094 145.957031 191.613281 147.378906 C 191.441406 151.578125 190.992188 155.742188 190.261719 159.878906 C 189.898438 161.800781 189.335938 163.660156 188.566406 165.457031 C 186.644531 169.878906 183.1875 172.152344 178.492188 172.613281 C 176.6875 172.820312 174.902344 172.714844 173.136719 172.300781 C 172.164062 172.089844 171.226562 171.769531 170.324219 171.339844 C 169.425781 170.910156 168.585938 170.386719 167.804688 169.765625 C 167.027344 169.144531 166.328125 168.445312 165.707031 167.664062 C 165.089844 166.882812 164.566406 166.039062 164.140625 165.140625 C 162.386719 161.648438 161.964844 157.835938 162.054688 153.984375 C 162.121094 151.589844 162.351562 149.191406 162.523438 146.800781 C 162.75 143.585938 162.992188 140.371094 163.226562 137.15625 C 163.578125 132.226562 163.855469 127.285156 164.289062 122.355469 C 164.863281 115.863281 165.460938 109.371094 166.355469 102.910156 C 167.265625 96.378906 168.4375 89.90625 169.914062 83.472656 C 172.953125 70.246094 180.261719 59.875 190.84375 51.644531 C 195.710938 47.804688 201.09375 44.914062 206.984375 42.976562 C 211.6875 41.488281 216.496094 41.019531 221.398438 41.570312 C 224.378906 41.867188 227.367188 42.0625 230.359375 42.304688 C 232.449219 42.476562 234.546875 42.558594 236.621094 42.832031 C 239.683594 43.238281 242.753906 43.230469 245.820312 43.40625 C 249.65625 43.628906 253.453125 43.332031 257.210938 42.511719 C 260.453125 41.78125 263.734375 41.546875 267.050781 41.800781 C 269.363281 42.050781 271.617188 42.5625 273.816406 43.332031 C 275.875 44 277.890625 44.808594 279.933594 45.535156 C 280.847656 45.863281 281.773438 46.152344 282.703125 46.433594 C 284.988281 47.171875 287.273438 47.171875 289.558594 46.433594 C 295.34375 44.5625 301.351562 43.730469 307.320312 42.714844 C 311.453125 42.015625 315.570312 41.257812 319.710938 40.636719 C 323.632812 40.050781 327.574219 39.578125 331.515625 39.113281 C 333.894531 38.832031 336.285156 38.644531 338.667969 38.449219 C 341.140625 38.25 343.609375 38.273438 346.078125 38.523438 C 349.59375 38.851562 353.109375 38.832031 356.625 38.460938 C 362.042969 37.90625 367.484375 37.355469 372.964844 37.296875 C 379.789062 37.21875 386.605469 37.421875 393.40625 37.859375 C 397.964844 38.152344 402.511719 38.621094 407.0625 39.035156 C 410.640625 39.359375 414.21875 39.6875 417.792969 40.070312 C 420.921875 40.40625 424.035156 40.839844 427.164062 41.203125 C 430.359375 41.578125 433.5625 41.929688 436.761719 42.28125 C 438.921875 42.523438 441.078125 42.75 443.234375 42.976562 C 445.175781 43.171875 447.113281 43.355469 449.050781 43.519531 C 451.066406 43.695312 453.085938 43.824219 455.097656 43.988281 C 460.136719 44.425781 464.9375 43.378906 469.589844 41.585938 C 472.785156 40.359375 475.972656 39.03125 479.253906 38.035156 C 481.988281 37.191406 484.78125 36.6875 487.640625 36.527344 C 491.757812 36.355469 495.683594 37.136719 499.421875 38.871094 C 503.046875 40.5625 506.351562 42.738281 509.332031 45.40625 C 516.265625 51.398438 521.847656 58.527344 526.457031 66.382812 C 532.917969 77.417969 537.082031 89.320312 539.640625 101.808594 C 540.722656 107.25 541.519531 112.734375 542.035156 118.257812 C 542.816406 125.800781 543.0625 133.363281 542.777344 140.945312 C 542.515625 147.394531 541.753906 153.785156 539.699219 159.960938 C 539.089844 161.816406 538.324219 163.601562 537.398438 165.320312 C 536.59375 166.863281 535.597656 168.269531 534.410156 169.539062 C 530.328125 173.757812 525.507812 175.089844 519.855469 173.289062 C 516.976562 172.316406 514.410156 170.8125 512.152344 168.777344 C 508.128906 165.328125 504.9375 161.179688 502.171875 156.6875 C 500.203125 153.574219 498.589844 150.285156 497.332031 146.820312 C 497.234375 146.539062 497.113281 146.261719 496.996094 145.988281 C 496.058594 143.851562 495.394531 143.398438 493.070312 143.417969 C 492.914062 143.40625 492.757812 143.40625 492.601562 143.417969 C 490.6875 143.671875 489.207031 143.136719 488.472656 141.203125 C 488.460938 141.179688 488.335938 141.171875 488.1875 141.136719 Z M 480.503906 155.984375 C 481.265625 155.128906 481.441406 154.226562 481.722656 153.382812 C 482.734375 150.257812 483.726562 147.117188 484.707031 143.960938 C 485.492188 141.425781 486.550781 139.058594 488.421875 137.113281 C 488.742188 136.789062 488.96875 136.414062 489.109375 135.980469 C 489.839844 133.6875 490.777344 131.484375 491.921875 129.371094 C 492.324219 128.625 492.625 127.839844 492.824219 127.015625 C 493.027344 126.191406 493.117188 125.359375 493.101562 124.511719 C 493.085938 123.664062 492.964844 122.832031 492.734375 122.015625 C 492.503906 121.199219 492.171875 120.425781 491.742188 119.695312 C 491.273438 118.839844 490.839844 117.972656 490.339844 117.125 C 489.859375 116.332031 489.613281 115.476562 489.609375 114.550781 C 489.601562 113.625 489.832031 112.765625 490.300781 111.96875 C 490.828125 110.976562 491.449219 110.03125 492.070312 109.097656 C 494.472656 105.628906 497.28125 102.53125 500.503906 99.808594 C 502.144531 98.402344 503.738281 96.90625 505.320312 95.417969 C 506.375 94.441406 507.257812 93.328125 507.964844 92.078125 C 508.457031 91.21875 508.734375 90.296875 508.792969 89.304688 C 508.847656 88.316406 508.679688 87.367188 508.289062 86.453125 C 507.84375 85.414062 507.269531 84.453125 506.566406 83.566406 C 505.054688 81.605469 503.386719 79.785156 501.558594 78.105469 C 499.097656 75.800781 496.582031 73.550781 494.132812 71.234375 C 493.046875 70.203125 492.035156 69.09375 491.03125 67.984375 C 490.378906 67.242188 489.898438 66.402344 489.597656 65.460938 C 489.15625 64.144531 489.597656 63.117188 490.535156 62.226562 C 491.117188 61.738281 491.769531 61.386719 492.496094 61.171875 C 494.546875 60.519531 496.617188 60.4375 498.710938 60.929688 C 502.757812 61.765625 506.257812 63.78125 509.488281 66.304688 C 513.183594 69.171875 516.398438 72.507812 519.128906 76.308594 C 521.859375 80.109375 523.992188 84.21875 525.53125 88.640625 C 527.988281 95.621094 528.78125 102.824219 527.0625 110.101562 C 524.363281 121.5625 517.503906 129.363281 506.28125 133.191406 C 503.441406 134.160156 500.5 134.703125 497.582031 135.351562 C 495.738281 135.707031 493.953125 136.246094 492.222656 136.972656 C 491.128906 137.46875 490.578125 138.210938 490.660156 139.414062 C 490.660156 139.789062 490.660156 140.164062 490.707031 140.535156 C 490.714844 140.734375 490.789062 140.902344 490.925781 141.042969 C 491.066406 141.179688 491.238281 141.253906 491.433594 141.257812 C 492.257812 141.296875 493.082031 141.257812 493.90625 141.257812 C 494.792969 141.257812 495.617188 141.476562 496.378906 141.917969 C 497.144531 142.359375 497.75 142.964844 498.191406 143.726562 C 498.605469 144.441406 498.945312 145.1875 499.210938 145.96875 C 500.8125 150.273438 502.929688 154.3125 505.554688 158.078125 C 508.058594 161.746094 510.859375 165.164062 514.382812 167.921875 C 516.464844 169.550781 518.6875 170.914062 521.292969 171.542969 C 525.183594 172.480469 528.714844 171.789062 531.789062 169.132812 C 533.144531 167.925781 534.269531 166.53125 535.164062 164.953125 C 536.328125 162.933594 537.242188 160.804688 537.90625 158.570312 C 539.652344 152.949219 540.382812 147.152344 540.605469 141.300781 C 540.859375 134.925781 540.738281 128.558594 540.238281 122.199219 C 539.742188 115.390625 538.832031 108.640625 537.503906 101.945312 C 535.378906 91.222656 531.804688 81.007812 526.78125 71.300781 C 522.527344 63.027344 517.058594 55.65625 510.382812 49.183594 C 507.546875 46.375 504.402344 43.972656 500.945312 41.976562 C 495.792969 39.117188 490.386719 37.964844 484.507812 38.972656 C 481.414062 39.546875 478.398438 40.402344 475.460938 41.539062 C 473.082031 42.421875 470.71875 43.378906 468.328125 44.238281 C 464.929688 45.523438 461.414062 46.164062 457.785156 46.160156 C 455.015625 46.101562 452.25 45.832031 449.488281 45.609375 C 447.023438 45.40625 444.582031 45.175781 442.105469 44.9375 C 439.796875 44.710938 437.492188 44.46875 435.183594 44.203125 C 432.136719 43.859375 429.089844 43.488281 426.042969 43.140625 C 422.839844 42.78125 419.640625 42.433594 416.441406 42.082031 C 412.871094 41.6875 409.304688 41.234375 405.726562 40.933594 C 400.875 40.515625 396.007812 40.28125 391.167969 39.867188 C 386.015625 39.429688 380.835938 39.433594 375.667969 39.398438 C 370.117188 39.347656 364.585938 39.660156 359.074219 40.335938 C 357.292969 40.5625 355.492188 40.707031 353.703125 40.804688 C 351.453125 40.972656 349.210938 40.933594 346.964844 40.695312 C 343.753906 40.320312 340.539062 40.296875 337.320312 40.613281 C 333.816406 40.90625 330.292969 41.203125 326.828125 41.753906 C 323.132812 42.335938 319.425781 42.820312 315.730469 43.40625 C 311.742188 44.039062 307.765625 44.714844 303.777344 45.410156 C 299.359375 46.175781 294.921875 46.855469 290.660156 48.316406 C 289.152344 48.824219 287.605469 49.066406 286.015625 49.050781 C 284.425781 49.035156 282.882812 48.753906 281.386719 48.214844 C 280.535156 47.933594 279.683594 47.640625 278.835938 47.339844 C 276.941406 46.664062 275.039062 45.976562 273.140625 45.296875 C 270.808594 44.425781 268.402344 43.914062 265.921875 43.753906 C 263.4375 43.59375 260.988281 43.796875 258.5625 44.359375 C 254.378906 45.339844 250.128906 45.53125 245.84375 45.421875 C 242.917969 45.351562 240.003906 45.222656 237.089844 44.953125 C 234.484375 44.695312 231.867188 44.539062 229.253906 44.335938 C 225.894531 44.070312 222.535156 43.8125 219.175781 43.539062 C 213.984375 43.125 209.058594 44.179688 204.292969 46.183594 C 195.390625 49.933594 188.0625 55.726562 182.003906 63.179688 C 178.039062 67.972656 175.136719 73.339844 173.300781 79.285156 C 171.070312 86.609375 169.691406 94.125 168.683594 101.703125 C 168.121094 105.933594 167.628906 110.175781 167.199219 114.429688 C 166.730469 119.050781 166.359375 123.679688 165.984375 128.3125 C 165.753906 131.152344 165.59375 133.996094 165.390625 136.835938 C 165.015625 142.144531 164.617188 147.453125 164.261719 152.773438 C 164.1875 154.046875 164.1875 155.320312 164.261719 156.59375 C 164.328125 159.253906 164.921875 161.785156 166.046875 164.195312 C 166.398438 164.96875 166.835938 165.6875 167.359375 166.355469 C 167.878906 167.027344 168.46875 167.625 169.128906 168.15625 C 169.792969 168.6875 170.503906 169.136719 171.269531 169.5 C 172.035156 169.863281 172.832031 170.136719 173.660156 170.3125 C 175.742188 170.757812 177.824219 170.757812 179.90625 170.3125 C 182.992188 169.699219 185.148438 167.882812 186.464844 165.054688 C 187.191406 163.484375 187.726562 161.851562 188.074219 160.15625 C 188.78125 156.464844 189.222656 152.746094 189.390625 148.992188 C 189.574219 146.226562 189.675781 143.445312 190.523438 140.773438 C 190.6875 140.113281 190.699219 139.449219 190.5625 138.78125 C 190.023438 135.0625 189.8125 131.328125 189.921875 127.570312 C 190.167969 122.707031 190.425781 117.835938 190.859375 112.984375 C 191.375 107.3125 192.066406 101.660156 192.886719 96.027344 C 193.875 89.277344 195.011719 82.558594 196.632812 75.925781 C 197.40625 72.570312 198.425781 69.289062 199.6875 66.085938 C 200.21875 64.753906 200.941406 63.535156 201.855469 62.433594 C 202.769531 61.328125 203.832031 60.390625 205.039062 59.621094 C 206.933594 58.398438 208.941406 57.410156 211.0625 56.652344 C 217.296875 54.367188 223.78125 53.3125 230.339844 52.628906 C 233.019531 52.351562 235.71875 52.242188 238.40625 52.007812 C 241.996094 51.722656 245.589844 51.664062 249.183594 51.832031 C 251.347656 51.917969 253.53125 52.035156 255.625 52.683594 C 259.078125 53.753906 260.277344 56.386719 259.683594 59.421875 C 259.164062 61.851562 258.324219 64.167969 257.167969 66.367188 C 254.234375 72.183594 251.292969 78 248.265625 83.765625 C 246.734375 86.679688 245.019531 89.5 243.332031 92.332031 C 242.335938 93.917969 241.242188 95.433594 240.050781 96.878906 C 238.472656 98.839844 236.550781 99.371094 234.210938 98.839844 C 232.902344 98.527344 231.613281 98.140625 230.328125 97.742188 C 227.050781 96.71875 223.769531 95.621094 220.492188 94.644531 C 217.839844 93.800781 215.128906 93.285156 212.351562 93.097656 C 209.832031 92.976562 208.054688 94.136719 206.871094 96.292969 C 206.328125 97.210938 206.015625 98.203125 205.933594 99.269531 C 205.890625 100.246094 205.847656 101.21875 205.886719 102.191406 C 205.996094 104.832031 206.785156 107.34375 207.460938 109.875 C 207.8125 111.101562 208.097656 112.339844 208.3125 113.59375 C 208.90625 117.933594 208.835938 122.261719 208.101562 126.582031 C 207.824219 128.597656 207.242188 130.523438 206.355469 132.355469 C 205.996094 133.160156 205.46875 133.832031 204.765625 134.363281 C 204.066406 134.898438 203.28125 135.230469 202.410156 135.359375 C 201.523438 135.5 200.644531 135.664062 199.757812 135.828125 C 198.566406 136.003906 197.417969 136.324219 196.308594 136.789062 C 194.882812 137.429688 193.832031 138.460938 193.164062 139.875 C 192.980469 140.191406 192.984375 140.507812 193.171875 140.824219 C 193.359375 141.140625 193.636719 141.292969 194.003906 141.28125 C 194.605469 141.292969 195.203125 141.234375 195.789062 141.109375 C 197.972656 140.578125 200.183594 140.210938 202.402344 139.847656 C 203.671875 139.664062 204.871094 139.265625 206 138.652344 C 207.125 138.039062 208.113281 137.25 208.960938 136.285156 C 209.640625 135.488281 210.28125 134.65625 210.875 133.789062 C 211.691406 132.625 212.421875 131.394531 213.261719 130.246094 C 214.285156 128.710938 215.632812 127.558594 217.308594 126.789062 C 218.003906 126.476562 218.734375 126.335938 219.496094 126.363281 C 220.257812 126.394531 220.972656 126.589844 221.644531 126.953125 C 222.773438 127.585938 223.71875 128.425781 224.476562 129.472656 C 225.476562 130.796875 226.34375 132.203125 227.074219 133.691406 C 228.804688 137.183594 230.289062 140.777344 231.53125 144.472656 C 231.972656 145.828125 232.304688 147.207031 232.523438 148.617188 C 233.179688 152.550781 233.4375 156.507812 233.300781 160.492188 C 233.191406 164.539062 233.074219 168.589844 232.832031 172.628906 C 232.363281 179.808594 232.027344 187 231.78125 194.191406 C 231.503906 202.359375 231.578125 210.527344 232.007812 218.699219 C 232.257812 223.195312 232.8125 227.652344 233.664062 232.070312 C 235.5625 241.8125 238.484375 251.234375 242.433594 260.335938 C 245.722656 268.246094 249.765625 275.753906 254.558594 282.859375 C 256.164062 285.3125 258.003906 287.578125 260.078125 289.65625 C 260.722656 290.285156 261.417969 290.847656 262.167969 291.347656 C 263.066406 291.933594 263.675781 291.765625 264.246094 290.878906 C 264.984375 289.648438 265.507812 288.328125 265.808594 286.925781 C 266.910156 282.242188 267.507812 277.492188 267.605469 272.675781 C 267.882812 266.527344 267.738281 260.386719 267.167969 254.257812 C 266.75 250.378906 266.230469 246.527344 265.054688 242.78125 C 264.035156 239.566406 262.859375 236.410156 261.523438 233.3125 C 258.089844 225.171875 254.570312 217.070312 251.1875 208.902344 C 248.648438 202.890625 246.542969 196.730469 244.875 190.421875 C 243.734375 185.988281 242.839844 181.515625 242.9375 176.890625 C 243.089844 170.125 245.894531 164.769531 251.535156 160.953125 C 253.414062 159.691406 255.414062 158.675781 257.539062 157.898438 C 258.03125 157.71875 258.523438 157.539062 259.027344 157.398438 C 259.367188 157.324219 259.65625 157.15625 259.890625 156.898438 C 260.125 156.640625 260.265625 156.339844 260.3125 155.996094 C 260.585938 154.667969 260.996094 153.386719 261.535156 152.144531 C 264.644531 144.804688 269.6875 139.097656 276.363281 134.835938 C 278.386719 133.515625 280.570312 132.550781 282.914062 131.949219 C 285.257812 131.347656 287.632812 131.136719 290.042969 131.316406 C 295.046875 131.675781 299.304688 133.601562 302.652344 137.386719 C 304.199219 139.085938 305.238281 141.054688 305.757812 143.296875 C 306.289062 145.640625 306.695312 147.984375 307.042969 150.363281 C 307.304688 151.953125 307.199219 153.515625 306.71875 155.050781 C 306.53125 155.671875 306.210938 156.214844 305.765625 156.6875 C 305.316406 157.15625 304.789062 157.5 304.179688 157.71875 C 303.566406 157.957031 302.691406 157.617188 302.339844 158.296875 C 302.042969 158.863281 302.058594 159.597656 301.9375 160.257812 C 301.867188 160.628906 301.824219 161.003906 301.71875 161.359375 C 299.71875 168.390625 293.832031 172.28125 286.257812 169.882812 C 281.195312 168.273438 278.71875 163.605469 278.476562 159.304688 C 278.398438 158.304688 278.605469 157.367188 279.09375 156.492188 C 279.820312 155.234375 281.792969 155.167969 282.476562 156.386719 C 282.804688 156.972656 283.109375 157.574219 283.414062 158.171875 C 283.863281 159.054688 284.46875 159.808594 285.238281 160.433594 C 286.003906 161.058594 286.863281 161.5 287.820312 161.757812 C 288.921875 162.054688 290.035156 162.117188 291.164062 161.945312 C 292.804688 161.765625 294.191406 161.125 294.96875 159.550781 C 295.371094 158.683594 295.941406 157.949219 296.683594 157.34375 C 297.421875 156.738281 298.257812 156.320312 299.1875 156.097656 C 299.386719 156.011719 299.578125 155.902344 299.753906 155.769531 C 299.625 155.054688 299.359375 154.390625 298.957031 153.785156 C 298.558594 153.179688 298.050781 152.679688 297.441406 152.28125 C 295.894531 151.195312 294.214844 150.390625 292.398438 149.867188 C 288.574219 148.800781 285.132812 149.535156 282.183594 152.257812 C 281.300781 153.074219 280.445312 153.914062 279.554688 154.714844 C 278.941406 155.261719 278.3125 155.796875 277.652344 156.292969 C 276.605469 157.121094 275.421875 157.496094 274.089844 157.429688 C 273.121094 157.382812 272.148438 157.390625 271.171875 157.386719 C 268.460938 157.386719 265.808594 157.886719 263.160156 158.378906 C 262.074219 158.582031 261.851562 158.910156 261.792969 160.085938 C 261.578125 164.171875 262.707031 167.707031 265.667969 170.703125 C 272.742188 177.855469 280.191406 184.601562 287.878906 191.046875 C 290.472656 193.210938 293.160156 195.234375 295.929688 197.167969 C 297.855469 198.511719 299.753906 198.730469 301.824219 197.6875 C 302.761719 197.21875 303.730469 196.804688 304.632812 196.257812 C 306.414062 195.152344 308.179688 194.015625 309.886719 192.796875 C 313.730469 190.050781 317.359375 187.027344 320.957031 183.972656 C 322.046875 183.035156 323.125 182.125 324.238281 181.214844 C 324.738281 180.734375 325.324219 180.421875 326.003906 180.277344 C 326.191406 180.234375 326.375 180.234375 326.5625 180.277344 C 326.746094 180.320312 326.914062 180.402344 327.0625 180.519531 C 327.210938 180.640625 327.328125 180.785156 327.40625 180.957031 C 327.488281 181.128906 327.53125 181.3125 327.527344 181.5 C 327.550781 182.113281 327.425781 182.695312 327.15625 183.246094 C 326.730469 184.117188 326.375 185.03125 325.902344 185.878906 C 324.398438 188.554688 322.898438 191.238281 321.316406 193.847656 C 315.507812 203.476562 309.625 213.066406 303.867188 222.703125 C 298.839844 231.140625 293.832031 239.578125 289.398438 248.335938 C 283.183594 260.535156 278.464844 273.289062 275.242188 286.597656 C 273.464844 294.035156 272.09375 301.546875 271.125 309.128906 C 270.363281 315.09375 269.847656 321.050781 270.28125 327.0625 C 270.527344 331.125 271.316406 335.082031 272.648438 338.925781 C 275.078125 345.675781 279.277344 350.964844 285.71875 354.300781 C 289.226562 356.058594 292.929688 357.175781 296.824219 357.652344 C 301.621094 358.300781 306.390625 358.132812 311.128906 357.148438 C 315.605469 356.191406 319.90625 354.714844 324.027344 352.714844 C 324.125 352.667969 324.167969 352.5 324.238281 352.378906 C 323.878906 352.003906 323.410156 352.171875 323.007812 352.1875 C 319.246094 352.28125 315.523438 351.96875 311.832031 351.25 C 308.40625 350.675781 305.117188 349.660156 301.96875 348.199219 C 295.304688 344.917969 291.039062 339.734375 289.179688 332.550781 C 287.878906 327.535156 287.945312 322.457031 288.527344 317.363281 C 289.183594 312.222656 290.316406 307.1875 291.929688 302.261719 C 294.648438 293.5625 298.277344 285.296875 303.464844 277.757812 C 310.351562 267.742188 319.238281 260.179688 330.636719 255.726562 C 332.460938 255.019531 334.070312 253.980469 335.464844 252.605469 C 340.492188 247.75 345.835938 243.292969 351.945312 239.839844 C 353.550781 238.929688 354.820312 237.679688 355.757812 236.089844 C 356.054688 235.570312 356.394531 235.078125 356.777344 234.617188 C 356.914062 234.476562 357.078125 234.394531 357.273438 234.371094 C 357.464844 234.34375 357.648438 234.382812 357.8125 234.484375 C 358.023438 234.582031 358.179688 234.738281 358.28125 234.945312 C 358.386719 235.152344 358.410156 235.371094 358.363281 235.597656 C 358.257812 235.878906 358.136719 236.148438 357.992188 236.414062 C 356.78125 238.742188 355.027344 240.535156 352.730469 241.796875 C 347.730469 244.609375 343.304688 248.171875 339.109375 252.042969 C 338.8125 252.316406 338.335938 252.511719 338.4375 253.066406 C 338.519531 253.066406 338.597656 253.132812 338.664062 253.113281 C 344.886719 251.585938 351.234375 251.175781 357.601562 251.082031 C 365.636719 250.949219 373.617188 251.542969 381.542969 252.855469 C 385.695312 253.503906 389.746094 254.539062 393.703125 255.953125 C 396.109375 256.816406 398.390625 257.945312 400.539062 259.332031 C 402.082031 260.304688 403.378906 261.535156 404.433594 263.023438 C 405.488281 264.511719 406.21875 266.144531 406.628906 267.917969 C 408.160156 274.269531 406.960938 280.105469 403.285156 285.453125 C 402.507812 286.570312 401.582031 287.546875 400.507812 288.378906 C 397.296875 290.90625 391.011719 292.128906 386.792969 287.628906 C 385.972656 286.757812 385.21875 285.824219 384.449219 284.914062 C 383.957031 284.242188 383.351562 283.695312 382.632812 283.269531 C 381.484375 282.683594 380.085938 282.742188 379.25 283.453125 C 378.273438 284.28125 378.121094 285.328125 378.414062 286.519531 C 378.609375 287.296875 378.957031 287.992188 379.464844 288.613281 C 379.972656 289.234375 380.585938 289.714844 381.308594 290.058594 C 382.660156 290.699219 384.066406 291.183594 385.527344 291.511719 C 387.058594 291.859375 388.566406 292.289062 390.046875 292.804688 C 392.585938 293.773438 393.226562 295.214844 392.4375 297.757812 C 392.367188 297.96875 392.289062 298.179688 392.203125 298.390625 C 391.058594 301.382812 389.578125 304.191406 387.753906 306.824219 C 385.933594 309.457031 383.824219 311.835938 381.425781 313.957031 C 378.578125 316.46875 375.359375 318.332031 371.589844 319.113281 C 369.738281 319.433594 367.871094 319.5625 365.992188 319.507812 C 365.261719 319.507812 365.058594 319.726562 365.089844 320.445312 C 365.300781 323.746094 365.882812 326.980469 366.84375 330.148438 C 367.148438 331.167969 367.664062 332.070312 368.386719 332.855469 C 369.5625 334.117188 370.703125 335.414062 371.941406 336.605469 C 378.953125 343.449219 386.777344 349.1875 395.414062 353.820312 C 402.320312 357.515625 409.570312 360.261719 417.351562 361.445312 C 420.335938 361.960938 423.304688 361.871094 426.25 361.167969 C 428.121094 360.6875 429.847656 359.894531 431.433594 358.796875 C 433.019531 357.695312 434.367188 356.355469 435.472656 354.773438 C 437.515625 351.855469 438.96875 348.671875 439.835938 345.214844 C 441.414062 339.457031 441.792969 333.5625 441.792969 327.625 C 441.742188 321.167969 441.203125 314.75 440.175781 308.375 C 438.523438 297.464844 435.984375 286.765625 432.5625 276.277344 C 428.285156 263.042969 422.582031 250.457031 415.457031 238.515625 C 411.921875 232.617188 407.550781 227.421875 402.339844 222.9375 C 398.199219 219.457031 393.796875 216.347656 389.132812 213.609375 C 385.355469 211.328125 381.542969 209.085938 377.785156 206.761719 C 375.453125 205.363281 373.351562 203.675781 371.488281 201.691406 C 369.53125 199.617188 368.300781 197.175781 367.808594 194.367188 C 367.109375 190.304688 366.589844 186.222656 366.101562 182.128906 C 365.574219 177.664062 365.058594 173.199219 364.558594 168.730469 C 364.015625 163.8125 363.492188 158.894531 362.980469 153.980469 C 362.59375 150.175781 362.242188 146.371094 361.886719 142.566406 C 361.480469 138.3125 361.070312 134.0625 360.691406 129.808594 C 360.328125 125.777344 359.996094 121.738281 359.667969 117.710938 C 359.265625 112.777344 358.839844 107.867188 358.492188 102.917969 C 358.191406 98.726562 358.023438 94.535156 357.734375 90.34375 C 357.59375 88.089844 357.6875 85.847656 358.015625 83.613281 C 358.164062 82.40625 358.554688 81.289062 359.195312 80.253906 C 359.550781 79.65625 360.039062 79.203125 360.664062 78.898438 C 361.289062 78.589844 361.945312 78.480469 362.632812 78.566406 C 363.390625 78.617188 364.109375 78.808594 364.789062 79.144531 C 365.789062 79.660156 366.722656 80.269531 367.601562 80.972656 C 369.597656 82.5625 371.449219 84.3125 373.15625 86.210938 C 375.929688 89.257812 378.675781 92.335938 381.417969 95.410156 C 382.992188 97.234375 384.722656 98.890625 386.609375 100.386719 C 387.847656 101.378906 389.203125 102.160156 390.6875 102.730469 C 391.917969 103.191406 393.167969 103.238281 394.433594 102.875 C 394.78125 102.753906 395.136719 102.652344 395.496094 102.570312 C 395.691406 102.546875 395.871094 102.585938 396.039062 102.683594 C 396.203125 102.78125 396.324219 102.921875 396.402344 103.097656 C 396.496094 103.269531 396.523438 103.453125 396.488281 103.644531 C 396.453125 103.835938 396.359375 103.996094 396.210938 104.121094 C 395.945312 104.382812 395.644531 104.597656 395.304688 104.757812 C 393.945312 105.351562 392.554688 105.441406 391.128906 105.035156 C 389.433594 104.605469 387.871094 103.886719 386.445312 102.875 C 384.167969 101.269531 382.117188 99.414062 380.289062 97.308594 C 378.03125 94.804688 375.796875 92.277344 373.550781 89.757812 C 371.71875 87.671875 369.777344 85.695312 367.722656 83.824219 C 366.582031 82.726562 365.308594 81.808594 363.902344 81.074219 C 362.03125 80.175781 361.003906 80.636719 360.355469 82.664062 C 360.265625 82.945312 360.222656 83.242188 360.15625 83.535156 C 359.832031 84.933594 359.703125 86.347656 359.765625 87.78125 C 359.960938 92.050781 360.152344 96.316406 360.398438 100.582031 C 360.574219 103.578125 360.839844 106.5625 361.074219 109.554688 C 361.429688 114.109375 361.78125 118.671875 362.164062 123.222656 C 362.539062 127.628906 362.953125 132.027344 363.359375 136.433594 C 363.703125 140.164062 364.058594 143.894531 364.417969 147.621094 C 364.789062 151.371094 365.183594 155.082031 365.570312 158.804688 C 365.933594 162.308594 366.289062 165.835938 366.683594 169.308594 C 367.203125 173.925781 367.730469 178.542969 368.308594 183.152344 C 368.742188 186.648438 369.246094 190.132812 369.746094 193.617188 C 369.949219 194.964844 370.359375 196.242188 370.980469 197.453125 C 371.601562 198.664062 372.402344 199.742188 373.378906 200.691406 C 374.96875 202.292969 376.726562 203.691406 378.644531 204.882812 C 381.050781 206.394531 383.492188 207.863281 385.933594 209.316406 C 389.539062 211.460938 393.148438 213.59375 396.617188 215.96875 C 404.761719 221.535156 411.652344 228.324219 416.800781 236.792969 C 423.890625 248.496094 429.597656 260.839844 433.929688 273.820312 C 437.703125 284.988281 440.472656 296.402344 442.238281 308.054688 C 443.382812 315.632812 444.113281 323.222656 443.886719 330.898438 C 443.804688 335.027344 443.34375 339.117188 442.503906 343.164062 C 441.648438 347.21875 440.34375 351.132812 438.109375 354.640625 C 433.519531 361.882812 426.773438 364.574219 418.484375 363.710938 C 413.480469 363.191406 408.644531 361.789062 403.960938 360.015625 C 396.339844 357.136719 389.34375 353.113281 382.753906 348.378906 C 377.371094 344.535156 372.398438 340.214844 367.835938 335.425781 C 365.929688 333.515625 364.722656 331.238281 364.214844 328.589844 C 363.890625 326.832031 363.523438 325.085938 363.183594 323.347656 C 363.085938 323.441406 362.929688 323.519531 362.886719 323.640625 C 362.75 323.992188 362.652344 324.351562 362.585938 324.71875 C 361.96875 329.085938 359.777344 332.5625 356.542969 335.449219 C 354.457031 337.269531 352.269531 338.964844 349.984375 340.535156 C 345.925781 343.347656 341.71875 345.953125 337.417969 348.398438 C 337.023438 348.625 336.378906 348.679688 336.425781 349.421875 C 338.683594 349.257812 340.917969 349.101562 343.15625 348.953125 C 346.292969 348.722656 349.425781 348.390625 352.566406 348.277344 C 359.238281 348.035156 365.90625 348.046875 372.519531 349.128906 C 376.066406 349.710938 379.578125 350.4375 382.921875 351.800781 C 384.328125 352.347656 385.632812 353.070312 386.839844 353.976562 C 387.96875 354.785156 388.773438 355.84375 389.25 357.148438 C 389.832031 358.859375 389.320312 360.054688 387.667969 360.824219 C 386.636719 361.304688 385.550781 361.566406 384.410156 361.609375 C 380.589844 361.792969 376.769531 361.738281 372.957031 361.445312 C 370.496094 361.21875 368.03125 361.007812 365.570312 360.789062 C 362.664062 360.535156 359.753906 360.257812 356.84375 360.023438 C 354.152344 359.804688 351.46875 359.527344 348.773438 359.453125 C 345.027344 359.347656 341.277344 359.414062 337.53125 359.390625 C 334.386719 359.367188 331.453125 360.140625 328.726562 361.703125 C 327.878906 362.171875 327.035156 362.667969 326.214844 363.191406 C 322.867188 365.320312 319.53125 367.476562 316.175781 369.597656 C 314.402344 370.71875 312.609375 371.800781 310.808594 372.878906 C 308.15625 374.464844 305.296875 374.65625 302.339844 374.050781 C 301.023438 373.785156 299.722656 373.417969 298.414062 373.113281 C 296.816406 372.671875 295.191406 372.460938 293.535156 372.476562 C 288.183594 372.726562 284.632812 376.457031 284.632812 381.796875 C 284.703125 383.296875 284.949219 384.773438 285.375 386.214844 C 285.976562 388.492188 286.074219 390.792969 285.667969 393.113281 C 285.109375 395.941406 284.046875 398.5625 282.480469 400.980469 C 280.140625 404.730469 277.132812 408.011719 274.046875 411.175781 C 273.464844 411.769531 272.785156 412.230469 272.019531 412.5625 C 271.253906 412.890625 270.453125 413.0625 269.617188 413.078125 C 267.949219 413.148438 266.335938 412.878906 264.78125 412.265625 C 262.6875 411.425781 260.738281 410.332031 258.929688 408.984375 C 255.609375 406.511719 252.585938 403.722656 249.859375 400.609375 C 244.683594 394.753906 240.0625 388.492188 235.996094 381.820312 C 231.5625 374.683594 227.40625 367.402344 224.0625 359.679688 C 218.4375 346.734375 215.6875 333.148438 215.089844 319.097656 C 214.710938 310.246094 215.238281 301.414062 216.027344 292.597656 C 216.496094 287.441406 217.09375 282.308594 217.5625 277.164062 C 217.742188 275.226562 217.730469 273.269531 217.773438 271.324219 C 217.773438 270.996094 217.875 270.554688 217.34375 270.386719 C 216.585938 270.925781 216.292969 271.792969 215.902344 272.578125 C 214.636719 275.203125 213.59375 277.910156 212.769531 280.703125 C 210.453125 288.390625 208.765625 296.214844 207.714844 304.175781 C 206.789062 310.941406 206.261719 317.738281 206.136719 324.566406 C 205.984375 332.824219 206.507812 341.042969 207.710938 349.21875 C 208.691406 356.300781 210.476562 363.175781 213.066406 369.84375 C 217.605469 381.457031 224.453125 391.5625 233.140625 400.460938 C 240.136719 407.632812 248.003906 413.71875 256.386719 419.171875 C 263.984375 424.121094 271.960938 428.421875 279.957031 432.675781 C 283.199219 434.398438 286.46875 436.0625 289.621094 437.933594 C 295.453125 441.386719 300.613281 445.730469 305.554688 450.324219 C 310.667969 455.0625 315.527344 460.0625 320.464844 464.984375 C 324.921875 469.433594 329.402344 473.863281 334.359375 477.765625 C 338.074219 480.699219 341.980469 483.316406 346.410156 485.09375 C 349.707031 486.472656 353.144531 487.109375 356.71875 487 C 360.039062 486.832031 363.226562 486.089844 366.285156 484.773438 C 371.3125 482.683594 375.78125 479.6875 380 476.300781 C 386.742188 470.875 392.703125 464.652344 398.339844 458.117188 C 403.289062 452.390625 408.148438 446.585938 412.921875 440.703125 C 415.359375 437.695312 418.097656 434.988281 421.132812 432.582031 C 424.167969 430.175781 427.425781 428.132812 430.914062 426.445312 C 436.035156 423.957031 441.328125 421.886719 446.589844 419.738281 C 456.597656 415.644531 466.195312 410.785156 475.121094 404.65625 C 480.488281 401.011719 485.253906 396.703125 489.425781 391.730469 C 496.050781 383.765625 500.492188 374.675781 503.238281 364.730469 C 505.949219 354.886719 506.984375 344.875 506.929688 334.707031 C 506.871094 332.453125 506.628906 330.222656 506.203125 328.011719 C 505.199219 322.472656 503.867188 317.015625 502.210938 311.636719 C 498.476562 299.140625 494.039062 286.898438 488.898438 274.910156 C 487.390625 271.398438 485.835938 267.910156 483.984375 264.5625 C 483.566406 263.675781 483.015625 262.875 482.339844 262.164062 C 482.152344 261.964844 481.921875 261.847656 481.652344 261.8125 C 481.382812 261.777344 481.128906 261.832031 480.898438 261.976562 C 480.171875 262.398438 479.546875 262.933594 479.023438 263.589844 C 477.851562 264.960938 476.824219 266.433594 475.933594 268.003906 C 473.777344 271.777344 471.648438 275.566406 469.550781 279.371094 C 467.113281 283.761719 464.644531 288.132812 461.816406 292.285156 C 460.417969 294.421875 458.84375 296.421875 457.089844 298.285156 C 456.277344 299.175781 455.339844 299.910156 454.28125 300.480469 C 452.222656 301.511719 450.394531 300.878906 449.476562 298.78125 C 449.101562 297.878906 448.871094 296.941406 448.777344 295.96875 C 448.402344 292.429688 448.777344 288.9375 449.324219 285.445312 C 449.738281 282.609375 450.5 279.867188 451.601562 277.222656 C 452.699219 274.574219 454.109375 272.105469 455.824219 269.808594 C 457.375 267.78125 459.042969 265.855469 460.828125 264.035156 C 463.242188 261.5625 465.839844 259.296875 468.4375 257.03125 C 471.648438 254.21875 474.117188 250.859375 475.839844 246.953125 C 477.238281 243.785156 478.277344 240.503906 478.960938 237.109375 C 480.207031 231.003906 480.988281 224.839844 481.304688 218.613281 C 481.488281 215.550781 481.660156 212.480469 481.84375 209.414062 C 482.359375 200.652344 482.78125 191.894531 482.671875 183.113281 C 482.664062 178.308594 482.328125 173.53125 481.664062 168.769531 C 481.382812 166.417969 480.878906 164.113281 480.152344 161.859375 C 479.980469 161.859375 479.886719 161.804688 479.832031 161.859375 C 479.640625 161.964844 479.460938 162.09375 479.292969 162.242188 C 476.246094 165.214844 472.621094 165.964844 468.519531 165.171875 C 465.617188 164.578125 462.96875 163.40625 460.578125 161.660156 C 458.617188 160.277344 456.777344 158.730469 454.859375 157.292969 C 453.789062 156.484375 452.664062 155.738281 451.546875 154.980469 C 451.257812 154.785156 450.933594 154.511719 450.550781 154.851562 C 450.503906 155.320312 450.808594 155.691406 450.96875 156.097656 C 451.40625 157.15625 451.589844 158.253906 451.523438 159.398438 C 451.457031 160.542969 451.144531 161.613281 450.582031 162.613281 C 447.84375 167.617188 443.832031 171.167969 438.320312 172.859375 C 436.285156 173.53125 434.21875 173.648438 432.121094 173.199219 C 426.867188 172.035156 425.695312 166.703125 426.851562 163.179688 C 426.878906 163.109375 426.910156 163.042969 426.949219 162.976562 C 427.042969 162.765625 427.191406 162.601562 427.390625 162.484375 C 427.589844 162.367188 427.804688 162.316406 428.035156 162.335938 C 428.417969 162.34375 428.773438 162.441406 429.105469 162.621094 C 430.980469 163.859375 433.0625 163.886719 435.195312 163.734375 C 438.902344 163.464844 440.214844 161.296875 440.40625 158.652344 C 440.566406 156.449219 440.484375 154.207031 441.550781 152.089844 C 439.011719 151.796875 436.503906 151.953125 434.023438 152.558594 C 429.558594 153.675781 426.597656 156.308594 425.792969 160.996094 C 425.5625 162.320312 425.324219 163.644531 425.023438 164.964844 C 424.746094 166.597656 424.25 168.160156 423.535156 169.652344 C 422.019531 172.539062 419.601562 173.902344 416.359375 173.667969 C 412.710938 173.402344 410.242188 171.441406 408.863281 168.105469 C 408.089844 166.183594 407.84375 164.195312 408.125 162.144531 C 408.328125 160.210938 408.75 158.324219 409.394531 156.492188 C 411.097656 151.746094 413.308594 147.253906 416.027344 143.011719 C 421.078125 135.328125 427.867188 130.058594 436.820312 127.542969 C 438.386719 127.082031 439.976562 126.761719 441.601562 126.589844 C 443.222656 126.417969 444.84375 126.394531 446.472656 126.519531 C 448.097656 126.640625 449.699219 126.910156 451.273438 127.328125 C 452.851562 127.742188 454.378906 128.296875 455.855469 128.992188 C 458.527344 130.214844 461.027344 131.726562 463.351562 133.527344 C 466.804688 136.199219 469.894531 139.242188 472.617188 142.65625 C 475.34375 146.070312 477.625 149.753906 479.46875 153.714844 C 479.761719 154.425781 480.085938 155.085938 480.503906 155.984375 Z M 329.039062 258.960938 C 328.445312 258.757812 328.070312 259.070312 327.691406 259.253906 C 324.78125 260.648438 322.023438 262.292969 319.40625 264.183594 C 312.125 269.453125 306.480469 276.1875 302.039062 283.984375 C 297.042969 292.863281 293.527344 302.292969 291.496094 312.28125 C 290.371094 317.570312 289.804688 322.925781 290.507812 328.355469 C 291.636719 337.078125 295.945312 343.421875 304.152344 346.925781 C 308.46875 348.769531 313.015625 349.582031 317.652344 350.011719 C 321.398438 350.359375 325.148438 350.097656 328.894531 350.011719 C 329.804688 349.96875 330.65625 349.722656 331.445312 349.265625 C 337.773438 346 343.851562 342.316406 349.679688 338.222656 C 351.714844 336.8125 353.648438 335.277344 355.488281 333.621094 C 356.855469 332.425781 357.976562 331.03125 358.851562 329.4375 C 359.726562 327.84375 360.300781 326.148438 360.574219 324.355469 C 360.785156 322.949219 360.84375 321.542969 360.933594 320.101562 C 361.003906 319.019531 360.878906 318.824219 359.785156 318.53125 C 356.953125 317.769531 354.265625 316.660156 351.71875 315.203125 C 347.570312 312.859375 343.875 309.96875 340.964844 306.144531 C 339.835938 304.71875 339.007812 303.136719 338.480469 301.394531 C 337.253906 297.035156 339.484375 292.957031 343.816406 291.722656 C 344.546875 291.558594 345.285156 291.460938 346.035156 291.429688 C 349.066406 291.15625 351.375 289.644531 353.179688 287.269531 C 353.628906 286.660156 353.964844 285.996094 354.183594 285.273438 C 354.273438 285.042969 354.324219 284.804688 354.335938 284.558594 C 354.347656 284.308594 354.320312 284.066406 354.253906 283.832031 C 354.183594 283.59375 354.078125 283.375 353.9375 283.171875 C 353.796875 282.96875 353.625 282.792969 353.429688 282.648438 C 351.960938 281.484375 350.347656 280.875 348.417969 281.375 C 346.542969 281.875 345.011719 282.890625 343.824219 284.421875 C 343.308594 285.0625 342.863281 285.757812 342.417969 286.445312 C 341.761719 287.453125 340.980469 288.351562 340.074219 289.144531 C 339.550781 289.605469 338.964844 289.96875 338.320312 290.234375 C 337.671875 290.5 337 290.65625 336.304688 290.699219 C 335.605469 290.742188 334.921875 290.667969 334.246094 290.484375 C 333.574219 290.296875 332.949219 290.007812 332.371094 289.613281 C 331.617188 289.121094 330.925781 288.546875 330.304688 287.890625 C 328.765625 286.257812 327.277344 284.570312 325.796875 282.882812 C 324.957031 281.914062 324.246094 280.863281 323.660156 279.722656 C 322.953125 278.429688 322.488281 277.050781 322.273438 275.589844 C 322.054688 274.132812 322.097656 272.679688 322.398438 271.234375 C 322.753906 269.542969 323.316406 267.921875 324.082031 266.375 C 325.074219 264.429688 326.246094 262.609375 327.605469 260.90625 C 328.058594 260.265625 328.535156 259.609375 329.039062 258.960938 Z M 361.058594 316.574219 C 361.113281 315.457031 361.136719 314.558594 361.207031 313.667969 C 361.304688 312.398438 361.433594 311.125 361.566406 309.859375 C 361.585938 309.5625 361.65625 309.273438 361.773438 308.992188 C 361.851562 308.777344 361.988281 308.601562 362.179688 308.476562 C 362.375 308.347656 362.585938 308.289062 362.816406 308.300781 C 363.234375 308.328125 363.527344 308.535156 363.691406 308.917969 C 363.8125 309.195312 363.886719 309.484375 363.921875 309.78125 C 364.058594 310.820312 364.175781 311.863281 364.289062 312.90625 C 364.402344 313.953125 364.496094 315.144531 364.644531 316.257812 C 364.769531 317.234375 364.929688 317.375 365.921875 317.453125 C 367.957031 317.59375 369.960938 317.398438 371.929688 316.875 C 375.140625 316.085938 377.839844 314.359375 380.265625 312.1875 C 384.488281 308.34375 387.695312 303.785156 389.890625 298.511719 C 390.121094 297.960938 390.316406 297.394531 390.46875 296.816406 C 390.761719 295.746094 390.574219 295.316406 389.566406 294.855469 C 388.949219 294.585938 388.316406 294.367188 387.664062 294.195312 C 386.4375 293.863281 385.195312 293.582031 383.964844 293.257812 C 382.503906 292.90625 381.117188 292.359375 379.804688 291.617188 C 378.878906 291.09375 378.105469 290.398438 377.488281 289.53125 C 376.871094 288.664062 376.460938 287.707031 376.265625 286.660156 C 376.058594 285.800781 376.085938 284.953125 376.34375 284.109375 C 376.605469 283.265625 377.0625 282.550781 377.714844 281.957031 C 378.371094 281.367188 379.128906 280.984375 379.992188 280.808594 C 380.855469 280.632812 381.707031 280.691406 382.539062 280.984375 C 383.914062 281.472656 385.042969 282.300781 385.921875 283.46875 C 386.773438 284.613281 387.71875 285.671875 388.765625 286.644531 C 389.429688 287.265625 390.1875 287.738281 391.035156 288.066406 C 391.886719 288.390625 392.765625 288.542969 393.675781 288.519531 C 396.433594 288.472656 398.828125 287.558594 400.605469 285.378906 C 405.007812 279.910156 406.324219 273.796875 404.128906 267.042969 C 403.761719 265.929688 403.230469 264.902344 402.53125 263.964844 C 401.832031 263.023438 401 262.21875 400.039062 261.550781 C 398.695312 260.585938 397.273438 259.761719 395.769531 259.074219 C 392.683594 257.703125 389.492188 256.65625 386.191406 255.933594 C 379.234375 254.371094 372.191406 253.488281 365.0625 253.296875 C 358.324219 253.042969 351.582031 253.082031 344.878906 254.074219 C 341.691406 254.542969 338.558594 255.25 335.476562 256.1875 C 334.671875 256.414062 333.980469 256.832031 333.398438 257.433594 C 331.335938 259.515625 329.460938 261.753906 327.777344 264.152344 C 326.828125 265.503906 326.03125 266.941406 325.382812 268.464844 C 324.808594 269.777344 324.433594 271.144531 324.261719 272.566406 C 323.953125 275.558594 324.875 278.191406 326.605469 280.566406 C 328.234375 282.722656 330.015625 284.742188 331.949219 286.632812 C 334.835938 289.539062 337.601562 289.28125 340.074219 286.011719 C 340.660156 285.238281 341.160156 284.398438 341.742188 283.617188 C 343.019531 281.773438 344.707031 280.457031 346.800781 279.667969 C 347.976562 279.210938 349.1875 279.042969 350.441406 279.171875 C 351.691406 279.296875 352.847656 279.699219 353.90625 280.382812 C 356.335938 281.890625 357.054688 284.183594 355.78125 286.78125 C 353.988281 290.429688 351.09375 292.71875 346.972656 293.34375 C 346.078125 293.433594 345.191406 293.566406 344.308594 293.746094 C 343.683594 293.898438 343.105469 294.160156 342.574219 294.519531 C 342.042969 294.882812 341.589844 295.324219 341.21875 295.851562 C 340.84375 296.375 340.574219 296.949219 340.40625 297.570312 C 340.242188 298.191406 340.1875 298.824219 340.246094 299.464844 C 340.375 300.832031 340.800781 302.097656 341.523438 303.265625 C 342.328125 304.632812 343.285156 305.882812 344.394531 307.015625 C 347.992188 310.734375 352.203125 313.523438 357.027344 315.386719 C 358.3125 315.976562 359.660156 316.371094 361.058594 316.574219 Z M 192.558594 136.492188 C 192.890625 136.539062 193.171875 136.4375 193.394531 136.179688 C 194.890625 134.988281 196.589844 134.257812 198.484375 133.992188 C 199.589844 133.820312 200.675781 133.523438 201.761719 133.367188 C 202.410156 133.296875 202.988281 133.058594 203.496094 132.652344 C 204.003906 132.246094 204.363281 131.734375 204.574219 131.121094 C 204.941406 130.296875 205.242188 129.453125 205.472656 128.582031 C 205.816406 127.277344 206.066406 125.953125 206.222656 124.613281 C 206.636719 120.578125 206.789062 116.53125 205.953125 112.53125 C 205.535156 110.550781 204.925781 108.617188 204.429688 106.660156 C 203.84375 104.390625 203.617188 102.085938 203.753906 99.746094 C 203.84375 98.152344 204.273438 96.652344 205.042969 95.253906 C 206.730469 92.167969 209.355469 90.773438 212.835938 91.035156 C 214.929688 91.195312 216.992188 91.539062 219.027344 92.0625 C 222.871094 93.046875 226.597656 94.40625 230.386719 95.558594 C 231.949219 96.074219 233.535156 96.507812 235.148438 96.855469 C 235.660156 96.996094 236.171875 96.984375 236.683594 96.824219 C 237.191406 96.664062 237.617188 96.378906 237.957031 95.96875 C 238.453125 95.40625 238.945312 94.84375 239.40625 94.253906 C 240.71875 92.519531 241.914062 90.710938 242.996094 88.820312 C 247.636719 80.941406 251.632812 72.722656 255.691406 64.53125 C 256.515625 62.917969 257.132812 61.230469 257.542969 59.464844 C 258.140625 56.734375 257.320312 55.351562 254.660156 54.558594 C 254.449219 54.488281 254.234375 54.433594 254.015625 54.394531 C 252.460938 54.152344 250.898438 53.996094 249.328125 53.925781 C 241.597656 53.742188 233.902344 54.183594 226.246094 55.246094 C 221.933594 55.808594 217.703125 56.722656 213.546875 58 C 211.03125 58.769531 208.652344 59.84375 206.410156 61.226562 C 205.304688 61.882812 204.339844 62.703125 203.511719 63.6875 C 202.683594 64.671875 202.042969 65.765625 201.585938 66.964844 C 200.925781 68.796875 200.269531 70.628906 199.710938 72.496094 C 198.292969 77.546875 197.15625 82.660156 196.308594 87.835938 C 195.332031 93.375 194.53125 98.933594 193.875 104.511719 C 193.40625 108.453125 192.996094 112.402344 192.679688 116.363281 C 192.253906 121.664062 191.871094 126.976562 192.066406 132.300781 C 192.082031 133.714844 192.246094 135.109375 192.558594 136.492188 Z M 444.113281 128.550781 C 442.59375 128.554688 441.09375 128.726562 439.609375 129.0625 C 432.261719 130.609375 426.023438 134.054688 421.117188 139.789062 C 416.273438 145.457031 413.0625 152.023438 410.832031 159.085938 C 410.230469 160.972656 410.015625 162.898438 410.195312 164.867188 C 410.402344 167.039062 411.167969 168.96875 412.953125 170.316406 C 416.277344 172.824219 420.59375 171.917969 421.964844 167.976562 C 422.292969 167.054688 422.570312 166.117188 422.789062 165.164062 C 423.132812 163.628906 423.394531 162.078125 423.699219 160.53125 C 424.636719 155.691406 427.445312 152.484375 432.160156 150.960938 C 434.523438 150.214844 436.949219 149.839844 439.425781 149.839844 C 441.785156 149.792969 444.039062 150.261719 446.183594 151.246094 C 446.84375 151.617188 447.550781 151.847656 448.304688 151.933594 C 450.835938 152.003906 452.882812 153.199219 454.820312 154.664062 C 456.253906 155.75 457.628906 156.882812 459.035156 157.996094 C 460.71875 159.378906 462.523438 160.582031 464.445312 161.609375 C 466.742188 162.828125 469.191406 163.410156 471.789062 163.347656 C 473.046875 163.335938 474.242188 163.054688 475.375 162.511719 C 476.507812 161.96875 477.472656 161.210938 478.273438 160.242188 C 478.65625 159.867188 478.894531 159.417969 478.980469 158.886719 C 479.066406 158.359375 478.988281 157.859375 478.742188 157.382812 C 474.523438 147.105469 467.921875 138.769531 458.5 132.804688 C 456.363281 131.402344 454.070312 130.339844 451.621094 129.613281 C 449.171875 128.890625 446.667969 128.535156 444.113281 128.550781 Z M 525.800781 101.75 C 525.839844 99.546875 525.617188 97.375 525.140625 95.222656 C 522.742188 83.65625 516.667969 74.398438 507.308594 67.28125 C 504.914062 65.417969 502.257812 64.066406 499.34375 63.226562 C 497.664062 62.761719 495.960938 62.652344 494.234375 62.898438 C 493.484375 63.007812 492.785156 63.269531 492.148438 63.683594 C 491.898438 63.8125 491.734375 64.007812 491.648438 64.273438 C 491.558594 64.539062 491.578125 64.792969 491.703125 65.042969 C 491.933594 65.597656 492.238281 66.109375 492.609375 66.582031 C 493.546875 67.65625 494.484375 68.714844 495.523438 69.695312 C 497.398438 71.496094 499.378906 73.242188 501.316406 75.007812 C 503.792969 77.195312 506.066406 79.574219 508.132812 82.152344 C 508.9375 83.148438 509.605469 84.226562 510.144531 85.386719 C 510.445312 86.015625 510.664062 86.671875 510.800781 87.355469 C 510.9375 88.039062 510.984375 88.730469 510.945312 89.425781 C 510.910156 90.125 510.785156 90.804688 510.574219 91.46875 C 510.363281 92.132812 510.070312 92.761719 509.703125 93.355469 C 509.019531 94.527344 508.199219 95.589844 507.234375 96.542969 C 506 97.746094 504.730469 98.886719 503.484375 100.074219 C 501.726562 101.703125 499.910156 103.273438 498.210938 104.957031 C 495.996094 107.214844 494.089844 109.703125 492.484375 112.425781 C 491.691406 113.726562 491.476562 115.007812 492.347656 116.421875 C 493.167969 117.765625 493.871094 119.171875 494.457031 120.636719 C 495.160156 122.414062 495.394531 124.253906 495.164062 126.152344 C 494.988281 127.421875 494.613281 128.632812 494.046875 129.785156 C 493.535156 130.945312 492.957031 132.078125 492.449219 133.246094 C 492.292969 133.613281 491.835938 134.023438 492.269531 134.433594 C 492.566406 134.722656 492.964844 134.433594 493.324219 134.367188 C 494.914062 133.96875 496.503906 133.570312 498.101562 133.1875 C 500.066406 132.71875 502.042969 132.3125 503.992188 131.78125 C 505.71875 131.347656 507.394531 130.757812 509.011719 130.007812 C 510.628906 129.257812 512.164062 128.363281 513.613281 127.328125 C 515.0625 126.289062 516.402344 125.121094 517.632812 123.832031 C 518.859375 122.539062 519.957031 121.144531 520.921875 119.644531 C 524.335938 114.390625 525.800781 108.582031 525.789062 101.75 Z M 262.671875 156.277344 C 263.679688 156.125 264.480469 155.988281 265.289062 155.886719 C 267.734375 155.578125 270.1875 155.039062 272.652344 155.324219 C 273.628906 155.457031 274.582031 155.355469 275.511719 155.019531 C 276.4375 154.683594 277.234375 154.148438 277.894531 153.417969 C 278.953125 152.355469 280.066406 151.34375 281.175781 150.359375 C 282.394531 149.277344 283.777344 148.480469 285.320312 147.96875 C 286.867188 147.453125 288.453125 147.269531 290.078125 147.410156 C 292.835938 147.589844 295.292969 148.605469 297.648438 149.964844 C 298.617188 150.480469 299.457031 151.160156 300.160156 152 C 300.867188 152.84375 301.386719 153.785156 301.726562 154.832031 C 302.066406 155.902344 302.550781 156.058594 303.5625 155.660156 C 304.066406 155.449219 304.417969 155.085938 304.617188 154.574219 C 304.890625 153.867188 305.003906 153.132812 304.960938 152.375 C 305.046875 149.957031 304.464844 147.621094 304.027344 145.269531 C 303.148438 140.382812 300.324219 137.007812 295.914062 134.957031 C 291.585938 132.933594 287.101562 132.921875 282.570312 134.269531 C 280.914062 134.746094 279.355469 135.441406 277.886719 136.34375 C 271.328125 140.484375 266.332031 146.019531 263.363281 153.257812 C 263.015625 154.121094 262.542969 155 262.671875 156.277344 Z M 428.824219 165.121094 C 428.261719 168.046875 429.453125 170.148438 432.136719 171.050781 C 433.527344 171.5 434.933594 171.550781 436.355469 171.207031 C 441.976562 169.984375 445.933594 166.585938 448.714844 161.671875 C 449.304688 160.578125 449.507812 159.421875 449.324219 158.191406 C 449.101562 156.644531 448.390625 155.367188 447.195312 154.363281 C 446.257812 153.5 445.097656 153.730469 443.996094 153.726562 C 443.246094 153.726562 442.945312 154.027344 442.785156 154.789062 C 442.691406 155.304688 442.636719 155.824219 442.617188 156.347656 C 442.570312 157.164062 442.589844 157.992188 442.515625 158.8125 C 442.171875 162.613281 440.246094 164.804688 436.535156 165.640625 C 434.535156 166.105469 432.539062 166.070312 430.554688 165.542969 C 429.972656 165.398438 429.460938 164.980469 428.824219 165.121094 Z M 280.734375 158.242188 C 280.566406 159.191406 280.605469 160.128906 280.851562 161.054688 C 281.066406 162.011719 281.421875 162.914062 281.917969 163.757812 C 282.414062 164.601562 283.027344 165.355469 283.753906 166.007812 C 284.480469 166.664062 285.292969 167.195312 286.183594 167.597656 C 287.074219 168.003906 288.007812 168.261719 288.980469 168.378906 C 292.382812 168.792969 295.1875 167.851562 297.414062 165.257812 C 298.847656 163.542969 299.703125 161.578125 299.976562 159.359375 C 300.015625 159.136719 300.015625 158.914062 299.976562 158.695312 C 299.96875 158.574219 299.917969 158.480469 299.824219 158.402344 C 299.730469 158.328125 299.625 158.300781 299.507812 158.3125 C 299.214844 158.34375 298.929688 158.417969 298.660156 158.539062 C 297.785156 159.039062 297.152344 159.753906 296.757812 160.679688 C 296.074219 162.007812 295.035156 162.933594 293.636719 163.460938 C 289.050781 165.335938 283.945312 163.226562 281.960938 159.855469 C 281.65625 159.367188 281.53125 158.75 280.734375 158.242188 Z M 280.734375 158.242188 " fill-opacity="1" fill-rule="nonzero"/></g><g fill="#000000" fill-opacity="1"><g transform="translate(100.59083, 556.483269)"><g><path d="M 4.5625 -59.65625 L 11.3125 -59.65625 L 11.3125 1.515625 C 11.3125 4.554688 10.628906 7.359375 9.265625 9.921875 C 7.898438 12.492188 5.898438 14.554688 3.265625 16.109375 C 0.640625 17.660156 -2.535156 18.4375 -6.265625 18.4375 L -6.265625 16.8125 C -3.097656 16.8125 -0.753906 16.175781 0.765625 14.90625 C 2.285156 13.644531 3.296875 11.875 3.796875 9.59375 C 4.304688 7.3125 4.5625 4.617188 4.5625 1.515625 Z M 4.5625 -59.65625 "/></g></g></g><g fill="#000000" fill-opacity="1"><g transform="translate(116.835057, 556.483269)"><g><path d="M 8.640625 1.515625 L 4.28125 -2.84375 L 8.640625 -7.21875 L 13.015625 -2.84375 Z M 8.640625 1.515625 "/></g></g></g><g fill="#000000" fill-opacity="1"><g transform="translate(134.02923, 556.483269)"><g><path d="M 2.375 -4.46875 C 4.019531 -3.132812 6.09375 -1.894531 8.59375 -0.75 C 11.09375 0.382812 14.375 0.953125 18.4375 0.953125 C 21.03125 0.953125 23.429688 0.445312 25.640625 -0.5625 C 27.859375 -1.582031 29.648438 -3.117188 31.015625 -5.171875 C 32.378906 -7.234375 33.0625 -9.816406 33.0625 -12.921875 C 33.0625 -15.578125 32.519531 -17.757812 31.4375 -19.46875 C 30.363281 -21.1875 28.925781 -22.613281 27.125 -23.75 C 25.320312 -24.882812 23.34375 -25.863281 21.1875 -26.6875 C 19.03125 -27.519531 16.859375 -28.394531 14.671875 -29.3125 C 12.492188 -30.226562 10.5 -31.316406 8.6875 -32.578125 C 6.882812 -33.847656 5.441406 -35.476562 4.359375 -37.46875 C 3.285156 -39.46875 2.75 -41.988281 2.75 -45.03125 C 2.75 -48.007812 3.316406 -50.539062 4.453125 -52.625 C 5.597656 -54.71875 7.085938 -56.410156 8.921875 -57.703125 C 10.765625 -59.003906 12.726562 -59.957031 14.8125 -60.5625 C 16.90625 -61.164062 18.90625 -61.46875 20.8125 -61.46875 C 23.34375 -61.46875 25.601562 -61.164062 27.59375 -60.5625 C 29.59375 -59.957031 31.175781 -59.351562 32.34375 -58.75 C 33.519531 -58.15625 34.109375 -57.859375 34.109375 -57.859375 L 34.203125 -55.953125 C 34.203125 -55.953125 33.644531 -56.269531 32.53125 -56.90625 C 31.425781 -57.539062 29.875 -58.1875 27.875 -58.84375 C 25.882812 -59.507812 23.53125 -59.84375 20.8125 -59.84375 C 16.75 -59.84375 13.59375 -58.640625 11.34375 -56.234375 C 9.101562 -53.828125 7.984375 -50.914062 7.984375 -47.5 C 7.984375 -44.644531 8.722656 -42.332031 10.203125 -40.5625 C 11.691406 -38.789062 13.59375 -37.316406 15.90625 -36.140625 C 18.21875 -34.972656 20.671875 -33.863281 23.265625 -32.8125 C 25.867188 -31.769531 28.328125 -30.566406 30.640625 -29.203125 C 32.953125 -27.847656 34.832031 -26.0625 36.28125 -23.84375 C 37.738281 -21.625 38.46875 -18.773438 38.46875 -15.296875 C 38.46875 -11.742188 37.519531 -8.640625 35.625 -5.984375 C 33.726562 -3.328125 31.242188 -1.269531 28.171875 0.1875 C 25.097656 1.644531 21.851562 2.375 18.4375 2.375 C 15.007812 2.375 12.109375 1.992188 9.734375 1.234375 C 7.359375 0.472656 5.535156 -0.285156 4.265625 -1.046875 C 3.003906 -1.804688 2.375 -2.1875 2.375 -2.1875 Z M 2.375 -4.46875 "/></g></g></g><g fill="#000000" fill-opacity="1"><g transform="translate(176.302202, 556.483269)"><g><path d="M 49.6875 0.09375 L 39.421875 -23.9375 L 16.15625 -23.9375 L 5.515625 0.09375 L 3.328125 0.09375 L 30.40625 -60.796875 L 30.96875 -60.796875 L 57 0.09375 Z M 16.90625 -25.453125 L 38.765625 -25.453125 L 28.03125 -50.546875 Z M 16.90625 -25.453125 "/></g></g></g><g fill="#000000" fill-opacity="1"><g transform="translate(236.719315, 556.483269)"><g><path d="M 11.40625 -1.515625 L 35.15625 -1.515625 L 35.15625 0.09375 L 4.5625 0.09375 L 4.5625 -59.65625 L 11.40625 -59.65625 Z M 11.40625 -1.515625 "/></g></g></g><g fill="#000000" fill-opacity="1"><g transform="translate(275.47746, 556.483269)"><g/></g></g><g fill="#000000" fill-opacity="1"><g transform="translate(299.226326, 556.483269)"><g><path d="M 29.265625 -59.65625 C 31.410156 -59.65625 33.828125 -59.460938 36.515625 -59.078125 C 39.210938 -58.703125 41.90625 -57.976562 44.59375 -56.90625 C 47.289062 -55.832031 49.75 -54.25 51.96875 -52.15625 C 54.1875 -50.0625 55.972656 -47.269531 57.328125 -43.78125 C 58.691406 -40.300781 59.375 -35.96875 59.375 -30.78125 C 59.375 -25.394531 58.613281 -20.878906 57.09375 -17.234375 C 55.570312 -13.597656 53.578125 -10.65625 51.109375 -8.40625 C 48.640625 -6.15625 45.992188 -4.425781 43.171875 -3.21875 C 40.359375 -2.019531 37.632812 -1.195312 35 -0.75 C 32.375 -0.3125 30.125 -0.0625 28.25 0 C 26.382812 0.0625 25.203125 0.09375 24.703125 0.09375 L 4.5625 0.09375 L 4.5625 -59.65625 Z M 24.609375 -1.515625 C 27.835938 -1.515625 31.097656 -1.957031 34.390625 -2.84375 C 37.679688 -3.738281 40.6875 -5.257812 43.40625 -7.40625 C 46.132812 -9.5625 48.320312 -12.539062 49.96875 -16.34375 C 51.613281 -20.144531 52.4375 -24.957031 52.4375 -30.78125 C 52.4375 -35.40625 51.863281 -39.332031 50.71875 -42.5625 C 49.582031 -45.789062 48.046875 -48.414062 46.109375 -50.4375 C 44.179688 -52.46875 42.046875 -54.019531 39.703125 -55.09375 C 37.359375 -56.175781 34.96875 -56.921875 32.53125 -57.328125 C 30.09375 -57.742188 27.800781 -57.953125 25.65625 -57.953125 L 11.40625 -57.953125 L 11.40625 -1.515625 Z M 24.609375 -1.515625 "/></g></g></g><g fill="#000000" fill-opacity="1"><g transform="translate(362.968263, 556.483269)"><g><path d="M 34.859375 -58.046875 L 11.40625 -58.046875 L 11.40625 -31.921875 L 32.296875 -31.921875 L 32.296875 -30.3125 L 11.40625 -30.3125 L 11.40625 -1.515625 L 34.859375 -1.515625 L 34.859375 0.09375 L 4.5625 0.09375 L 4.5625 -59.65625 L 34.859375 -59.65625 Z M 34.859375 -58.046875 "/></g></g></g><g fill="#000000" fill-opacity="1"><g transform="translate(401.821404, 556.483269)"><g><path d="M 3.328125 -4.46875 C 4.972656 -3.132812 7.046875 -1.894531 9.546875 -0.75 C 12.046875 0.382812 15.320312 0.953125 19.375 0.953125 C 21.976562 0.953125 24.382812 0.445312 26.59375 -0.5625 C 28.8125 -1.582031 30.601562 -3.117188 31.96875 -5.171875 C 33.332031 -7.234375 34.015625 -9.816406 34.015625 -12.921875 C 34.015625 -15.578125 33.472656 -17.757812 32.390625 -19.46875 C 31.316406 -21.1875 29.875 -22.613281 28.0625 -23.75 C 26.257812 -24.882812 24.28125 -25.863281 22.125 -26.6875 C 19.976562 -27.519531 17.8125 -28.394531 15.625 -29.3125 C 13.4375 -30.226562 11.441406 -31.316406 9.640625 -32.578125 C 7.835938 -33.847656 6.394531 -35.476562 5.3125 -37.46875 C 4.238281 -39.46875 3.703125 -41.988281 3.703125 -45.03125 C 3.703125 -48.007812 4.269531 -50.539062 5.40625 -52.625 C 6.550781 -54.71875 8.039062 -56.410156 9.875 -57.703125 C 11.71875 -59.003906 13.679688 -59.957031 15.765625 -60.5625 C 17.859375 -61.164062 19.851562 -61.46875 21.75 -61.46875 C 24.289062 -61.46875 26.554688 -61.164062 28.546875 -60.5625 C 30.546875 -59.957031 32.128906 -59.351562 33.296875 -58.75 C 34.472656 -58.15625 35.0625 -57.859375 35.0625 -57.859375 L 35.15625 -55.953125 C 35.15625 -55.953125 34.597656 -56.269531 33.484375 -56.90625 C 32.378906 -57.539062 30.828125 -58.1875 28.828125 -58.84375 C 26.835938 -59.507812 24.476562 -59.84375 21.75 -59.84375 C 17.695312 -59.84375 14.546875 -58.640625 12.296875 -56.234375 C 10.054688 -53.828125 8.9375 -50.914062 8.9375 -47.5 C 8.9375 -44.644531 9.675781 -42.332031 11.15625 -40.5625 C 12.644531 -38.789062 14.546875 -37.316406 16.859375 -36.140625 C 19.171875 -34.972656 21.625 -33.863281 24.21875 -32.8125 C 26.820312 -31.769531 29.28125 -30.566406 31.59375 -29.203125 C 33.90625 -27.847656 35.785156 -26.0625 37.234375 -23.84375 C 38.691406 -21.625 39.421875 -18.773438 39.421875 -15.296875 C 39.421875 -11.742188 38.46875 -8.640625 36.5625 -5.984375 C 34.664062 -3.328125 32.179688 -1.269531 29.109375 0.1875 C 26.046875 1.644531 22.800781 2.375 19.375 2.375 C 15.957031 2.375 13.0625 1.992188 10.6875 1.234375 C 8.3125 0.472656 6.488281 -0.285156 5.21875 -1.046875 C 3.957031 -1.804688 3.328125 -2.1875 3.328125 -2.1875 Z M 3.328125 -4.46875 "/></g></g></g><g fill="#000000" fill-opacity="1"><g transform="translate(445.044334, 556.483269)"><g><path d="M 5.515625 0.09375 L 5.515625 -59.65625 L 12.34375 -59.65625 L 12.34375 0.09375 Z M 5.515625 0.09375 "/></g></g></g><g fill="#000000" fill-opacity="1"><g transform="translate(463.28346, 556.483269)"><g><path d="M 40.28125 -30.3125 L 55.578125 -30.3125 L 55.578125 -3.234375 C 55.578125 -3.234375 54.738281 -2.820312 53.0625 -2 C 51.382812 -1.175781 49.054688 -0.351562 46.078125 0.46875 C 43.097656 1.289062 39.613281 1.703125 35.625 1.703125 C 33.21875 1.703125 30.601562 1.429688 27.78125 0.890625 C 24.96875 0.359375 22.148438 -0.597656 19.328125 -1.984375 C 16.515625 -3.378906 13.9375 -5.265625 11.59375 -7.640625 C 9.25 -10.015625 7.363281 -12.988281 5.9375 -16.5625 C 4.507812 -20.144531 3.796875 -24.472656 3.796875 -29.546875 C 3.796875 -35.054688 4.679688 -39.789062 6.453125 -43.75 C 8.234375 -47.707031 10.65625 -50.9375 13.71875 -53.4375 C 16.789062 -55.9375 20.289062 -57.785156 24.21875 -58.984375 C 28.144531 -60.191406 32.234375 -60.796875 36.484375 -60.796875 C 40.085938 -60.796875 43.203125 -60.601562 45.828125 -60.21875 C 48.460938 -59.84375 50.472656 -59.460938 51.859375 -59.078125 C 53.253906 -58.703125 53.953125 -58.515625 53.953125 -58.515625 L 53.953125 -56.53125 C 53.953125 -56.53125 53.269531 -56.75 51.90625 -57.1875 C 50.550781 -57.632812 48.570312 -58.078125 45.96875 -58.515625 C 43.375 -58.960938 40.210938 -59.1875 36.484375 -59.1875 C 34.515625 -59.1875 32.359375 -58.945312 30.015625 -58.46875 C 27.671875 -58 25.375 -57.128906 23.125 -55.859375 C 20.882812 -54.585938 18.828125 -52.84375 16.953125 -50.625 C 15.085938 -48.414062 13.582031 -45.582031 12.4375 -42.125 C 11.300781 -38.675781 10.734375 -34.484375 10.734375 -29.546875 C 10.734375 -22.140625 11.859375 -16.265625 14.109375 -11.921875 C 16.359375 -7.585938 19.410156 -4.484375 23.265625 -2.609375 C 27.128906 -0.742188 31.535156 0.1875 36.484375 0.1875 C 38.890625 0.1875 41.132812 -0.03125 43.21875 -0.46875 C 45.3125 -0.914062 47.148438 -1.425781 48.734375 -2 L 48.734375 -28.78125 L 40.28125 -28.78125 Z M 40.28125 -30.3125 "/></g></g></g><g fill="#000000" fill-opacity="1"><g transform="translate(523.510592, 556.483269)"><g><path d="M 53.109375 -59.65625 L 53.109375 1.703125 L 52.8125 1.703125 L 6.171875 -49.96875 L 6.171875 0.09375 L 4.5625 0.09375 L 4.5625 -60.796875 L 4.84375 -60.796875 L 51.484375 -9.125 L 51.484375 -59.65625 Z M 53.109375 -59.65625 "/></g></g></g><g fill="#000000" fill-opacity="1"><g transform="translate(581.552807, 556.483269)"><g><path d="M 3.421875 -58.046875 L 3.421875 -59.65625 L 25.65625 -59.65625 L 25.65625 -58.046875 L 16.4375 -58.046875 L 16.4375 -29.734375 L 12.640625 -29.734375 L 12.640625 -58.046875 Z M 62.609375 -29.734375 L 58.8125 -29.734375 L 56.140625 -52.625 L 44.171875 -30.015625 L 43.796875 -30.015625 L 32.203125 -52.4375 L 29.171875 -29.734375 L 27.546875 -29.734375 L 31.640625 -59.65625 L 32.6875 -59.65625 L 45.3125 -35.4375 L 58.046875 -59.65625 L 59.09375 -59.65625 Z M 43.796875 -30.015625 L 44.171875 -30.015625 Z M 43.796875 -30.015625 "/></g></g></g></svg>