<svg xmlns="http://www.w3.org/2000/svg" xmlns:xlink="http://www.w3.org/1999/xlink" width="940" zoomAndPan="magnify" viewBox="0 0 705 591.000005" height="788" preserveAspectRatio="xMidYMid meet" version="1.0"><defs><g/><clipPath id="ebe60ceb11"><path d="M 162 36.328125 L 543 36.328125 L 543 489 L 162 489 Z M 162 36.328125 " clip-rule="nonzero"/></clipPath></defs><g clip-path="url(#ebe60ceb11)"><path fill="#fffffe" d="M 488.15625 141.085938 C 487.390625 142.089844 487.070312 143.328125 486.679688 144.511719 C 485.867188 147 485.121094 149.515625 484.339844 152.007812 C 483.738281 154.109375 482.957031 156.136719 481.996094 158.101562 C 481.648438 158.714844 481.585938 159.355469 481.808594 160.023438 C 483.976562 167.191406 484.554688 174.578125 484.722656 182.007812 C 484.90625 190.257812 484.476562 198.488281 484.015625 206.71875 C 483.804688 210.535156 483.65625 214.355469 483.386719 218.164062 C 482.832031 226.167969 482.089844 234.140625 479.847656 241.894531 C 479.164062 244.273438 478.277344 246.574219 477.195312 248.800781 C 475.492188 252.355469 473.175781 255.453125 470.246094 258.09375 C 467.625 260.4375 464.933594 262.722656 462.476562 265.25 C 461.007812 266.757812 459.59375 268.296875 458.257812 269.933594 C 456.554688 272.035156 455.136719 274.316406 454.003906 276.773438 C 452.871094 279.234375 452.0625 281.792969 451.578125 284.457031 C 451.027344 287.257812 450.714844 290.082031 450.640625 292.9375 C 450.621094 294.140625 450.742188 295.328125 450.996094 296.507812 C 451.089844 296.945312 451.21875 297.375 451.390625 297.789062 C 451.445312 297.972656 451.535156 298.136719 451.664062 298.277344 C 451.792969 298.421875 451.949219 298.527344 452.128906 298.59375 C 452.308594 298.664062 452.492188 298.691406 452.683594 298.671875 C 452.875 298.652344 453.054688 298.59375 453.21875 298.492188 C 453.808594 298.167969 454.355469 297.78125 454.855469 297.332031 C 456.128906 296.160156 457.265625 294.871094 458.269531 293.460938 C 460.925781 289.832031 463.339844 286.042969 465.5 282.09375 C 467.929688 277.785156 470.296875 273.445312 472.714844 269.136719 C 473.9375 266.894531 475.324219 264.765625 476.878906 262.742188 C 477.554688 261.832031 478.347656 261.042969 479.265625 260.375 C 481.21875 259.050781 482.910156 259.292969 484.363281 261.183594 C 484.988281 262.023438 485.542969 262.914062 486.019531 263.847656 C 488.636719 268.902344 490.976562 274.082031 493.046875 279.382812 C 497.539062 290.332031 501.433594 301.492188 504.734375 312.859375 C 506.160156 317.753906 507.339844 322.703125 508.269531 327.710938 C 509.011719 332.089844 509.222656 336.496094 508.90625 340.921875 C 508.648438 346.015625 508.097656 351.074219 507.253906 356.101562 C 505.007812 368.75 500.542969 380.464844 492.683594 390.769531 C 487.96875 396.871094 482.410156 402.066406 476.007812 406.363281 C 466.808594 412.628906 456.929688 417.605469 446.628906 421.757812 C 441.429688 423.859375 436.207031 425.90625 431.171875 428.429688 C 424.894531 431.519531 419.53125 435.761719 415.078125 441.15625 C 409.925781 447.398438 404.832031 453.6875 399.472656 459.757812 C 393.957031 465.992188 388.226562 472.019531 381.757812 477.296875 C 377.332031 480.902344 372.636719 484.09375 367.347656 486.339844 C 363.019531 488.257812 358.488281 489.070312 353.761719 488.773438 C 350.90625 488.539062 348.15625 487.871094 345.511719 486.773438 C 341.980469 485.292969 338.6875 483.398438 335.632812 481.097656 C 331.167969 477.785156 326.980469 474.164062 323.066406 470.222656 C 319.375 466.601562 315.738281 462.921875 312.074219 459.273438 C 307.296875 454.515625 302.453125 449.824219 297.1875 445.589844 C 293.097656 442.28125 288.726562 439.40625 284.070312 436.960938 C 276.441406 432.964844 268.816406 428.972656 261.421875 424.542969 C 253.988281 420.160156 246.945312 415.222656 240.292969 409.730469 C 231.027344 401.96875 223.0625 393.085938 216.972656 382.589844 C 211.839844 373.769531 208.328125 364.347656 206.441406 354.316406 C 204.476562 343.96875 203.867188 333.519531 204.097656 323.003906 C 204.207031 317.851562 204.539062 312.695312 205.148438 307.542969 C 206.445312 296.664062 208.464844 285.941406 212.269531 275.617188 C 212.921875 273.773438 213.71875 271.992188 214.65625 270.273438 C 215.070312 269.472656 215.601562 268.75 216.242188 268.109375 C 217.546875 266.898438 218.96875 267.230469 219.585938 268.871094 C 219.824219 269.511719 219.933594 270.171875 219.921875 270.855469 C 219.921875 272.261719 219.964844 273.710938 219.835938 275.125 C 219.367188 280.492188 218.792969 285.855469 218.265625 291.226562 C 217.277344 301.234375 216.734375 311.257812 217.328125 321.304688 C 218.238281 336.820312 222.011719 351.597656 229.203125 365.433594 C 234.183594 375.023438 239.71875 384.269531 246.3125 392.851562 C 249.253906 396.746094 252.507812 400.363281 256.070312 403.703125 C 258.144531 405.667969 260.414062 407.378906 262.875 408.832031 C 264.433594 409.753906 266.101562 410.390625 267.878906 410.738281 C 269.695312 411.066406 271.335938 410.714844 272.640625 409.390625 C 275.589844 406.398438 278.421875 403.296875 280.671875 399.726562 C 282 397.710938 282.9375 395.523438 283.484375 393.167969 C 283.945312 391.164062 283.945312 389.164062 283.484375 387.160156 C 283.1875 385.921875 282.882812 384.683594 282.667969 383.410156 C 281.882812 378.726562 283.816406 374.238281 287.621094 371.953125 C 288.785156 371.257812 290.035156 370.765625 291.363281 370.476562 C 292.6875 370.1875 294.027344 370.121094 295.378906 370.269531 C 297.402344 370.457031 299.339844 371.042969 301.320312 371.464844 C 302.195312 371.652344 303.082031 371.777344 303.957031 371.980469 C 305.714844 372.339844 307.386719 372.101562 308.972656 371.261719 C 310.183594 370.664062 311.351562 370 312.484375 369.265625 C 316.660156 366.628906 320.820312 363.960938 324.992188 361.304688 C 325.75 360.835938 326.527344 360.367188 327.300781 359.898438 C 330.542969 358.003906 334.039062 357.046875 337.789062 357.03125 C 344.164062 356.886719 350.523438 357.132812 356.867188 357.765625 C 361.1875 358.210938 365.535156 358.40625 369.847656 358.867188 C 372.6875 359.167969 375.53125 359.21875 378.371094 359.382812 C 380.460938 359.492188 382.550781 359.460938 384.636719 359.289062 C 385.230469 359.226562 385.8125 359.097656 386.378906 358.898438 C 387.269531 358.609375 387.492188 357.960938 387.015625 357.160156 C 386.316406 356.058594 385.390625 355.207031 384.230469 354.609375 C 382.046875 353.421875 379.738281 352.574219 377.308594 352.058594 C 370.636719 350.460938 363.859375 349.980469 357.015625 350.117188 C 351.699219 350.21875 346.390625 350.582031 341.089844 351.050781 C 338.253906 351.316406 335.410156 351.488281 332.566406 351.613281 C 331.285156 351.703125 330.074219 352.050781 328.941406 352.660156 C 324.09375 355 319.148438 357.160156 313.910156 358.519531 C 308.945312 359.847656 303.902344 360.292969 298.78125 359.855469 C 295.785156 359.632812 292.847656 359.089844 289.972656 358.226562 C 280.132812 355.101562 273.636719 348.546875 270.34375 338.792969 C 268.832031 334.128906 268.050781 329.34375 268 324.441406 C 267.925781 318.585938 268.332031 312.765625 269.21875 306.976562 C 270.074219 300.894531 271.167969 294.859375 272.496094 288.863281 C 276.144531 272.613281 281.960938 257.183594 289.953125 242.574219 C 296.859375 229.867188 304.355469 217.507812 311.867188 205.160156 C 315.492188 199.210938 319.070312 193.238281 322.644531 187.269531 C 323.214844 186.367188 323.683594 185.429688 324.152344 184.496094 C 323.542969 184.078125 323.300781 184.617188 323.027344 184.851562 C 319.253906 188.046875 315.449219 191.203125 311.460938 194.136719 C 309.128906 195.902344 306.667969 197.464844 304.078125 198.820312 C 302.941406 199.394531 301.757812 199.863281 300.535156 200.226562 C 299.847656 200.4375 299.144531 200.503906 298.429688 200.425781 C 297.714844 200.351562 297.042969 200.136719 296.414062 199.785156 C 294.964844 198.996094 293.582031 198.101562 292.261719 197.109375 C 288.441406 194.332031 284.84375 191.273438 281.285156 188.167969 C 275.53125 183.140625 269.9375 177.929688 264.515625 172.539062 C 263.722656 171.789062 263.019531 170.96875 262.398438 170.074219 C 261.777344 169.183594 261.253906 168.234375 260.832031 167.234375 C 260.40625 166.230469 260.089844 165.195312 259.875 164.128906 C 259.664062 163.0625 259.566406 161.984375 259.578125 160.898438 C 259.578125 160.671875 259.578125 160.429688 259.578125 160.222656 C 259.539062 159.753906 259.289062 159.535156 258.859375 159.617188 C 258.785156 159.625 258.710938 159.636719 258.640625 159.65625 C 254.699219 161.085938 251.144531 163.109375 248.523438 166.460938 C 247.457031 167.832031 246.628906 169.335938 246.042969 170.972656 C 245.457031 172.605469 245.140625 174.292969 245.09375 176.027344 C 244.894531 180.417969 245.644531 184.691406 246.6875 188.917969 C 248.429688 195.671875 250.671875 202.257812 253.410156 208.671875 C 256.792969 216.835938 260.320312 224.929688 263.746094 233.074219 C 264.734375 235.414062 265.621094 237.808594 266.472656 240.203125 C 267.734375 243.902344 268.574219 247.691406 268.992188 251.578125 C 269.796875 258.289062 270.058594 265.019531 269.773438 271.769531 C 269.671875 276.726562 269.097656 281.632812 268.0625 286.480469 C 267.773438 287.878906 267.332031 289.230469 266.738281 290.527344 C 266.425781 291.210938 266.039062 291.847656 265.578125 292.441406 C 264.484375 293.78125 263.175781 294.007812 261.566406 293.253906 C 260.492188 292.699219 259.539062 291.988281 258.699219 291.117188 C 257.09375 289.535156 255.636719 287.828125 254.324219 285.992188 C 250.0625 280.082031 246.390625 273.828125 243.308594 267.226562 C 238.449219 257.214844 234.789062 246.78125 232.328125 235.929688 C 230.835938 229.410156 229.992188 222.8125 229.792969 216.128906 C 229.664062 210.808594 229.40625 205.492188 229.542969 200.171875 C 229.757812 191.78125 230.066406 183.398438 230.570312 175.015625 C 230.9375 168.960938 231.328125 162.898438 231.191406 156.820312 C 231.128906 154.121094 230.886719 151.441406 230.472656 148.773438 C 229.96875 145.492188 228.601562 142.460938 227.410156 139.402344 C 226.472656 136.945312 225.328125 134.59375 223.972656 132.34375 C 223.304688 131.246094 222.511719 130.257812 221.582031 129.375 C 221.292969 129.105469 220.964844 128.894531 220.597656 128.738281 C 220.234375 128.585938 219.855469 128.496094 219.457031 128.476562 C 219.0625 128.453125 218.675781 128.5 218.296875 128.613281 C 217.914062 128.726562 217.566406 128.902344 217.25 129.136719 C 216.160156 129.949219 215.253906 130.925781 214.527344 132.070312 C 213.507812 133.554688 212.550781 135.078125 211.480469 136.519531 C 210.511719 137.878906 209.324219 139.003906 207.914062 139.894531 C 206.503906 140.785156 204.980469 141.378906 203.339844 141.675781 C 202.085938 141.910156 200.835938 142.144531 199.589844 142.371094 C 198.414062 142.597656 197.21875 142.761719 196.074219 143.085938 C 194.796875 143.4375 193.515625 143.457031 192.230469 143.148438 C 191.828125 144.511719 191.621094 145.902344 191.613281 147.324219 C 191.441406 151.519531 190.988281 155.683594 190.257812 159.820312 C 189.898438 161.738281 189.332031 163.597656 188.5625 165.394531 C 186.640625 169.8125 183.183594 172.085938 178.488281 172.546875 C 176.6875 172.75 174.902344 172.648438 173.136719 172.234375 C 172.160156 172.023438 171.226562 171.703125 170.324219 171.273438 C 169.425781 170.847656 168.585938 170.320312 167.804688 169.699219 C 167.023438 169.082031 166.324219 168.378906 165.707031 167.597656 C 165.089844 166.816406 164.566406 165.976562 164.140625 165.074219 C 162.386719 161.585938 161.964844 157.777344 162.054688 153.925781 C 162.121094 151.53125 162.351562 149.136719 162.523438 146.75 C 162.75 143.535156 162.992188 140.320312 163.226562 137.105469 C 163.578125 132.179688 163.855469 127.242188 164.289062 122.3125 C 164.863281 115.824219 165.460938 109.335938 166.355469 102.878906 C 167.265625 96.347656 168.4375 89.878906 169.910156 83.449219 C 172.953125 70.230469 180.261719 59.863281 190.839844 51.636719 C 195.710938 47.796875 201.089844 44.910156 206.980469 42.972656 C 211.683594 41.488281 216.488281 41.019531 221.394531 41.566406 C 224.375 41.863281 227.363281 42.058594 230.351562 42.304688 C 232.441406 42.472656 234.539062 42.554688 236.617188 42.828125 C 239.675781 43.234375 242.75 43.226562 245.8125 43.402344 C 249.648438 43.625 253.445312 43.328125 257.199219 42.507812 C 260.445312 41.78125 263.722656 41.542969 267.039062 41.796875 C 269.351562 42.046875 271.609375 42.558594 273.804688 43.328125 C 275.867188 43.996094 277.878906 44.804688 279.921875 45.53125 C 280.835938 45.859375 281.765625 46.148438 282.691406 46.429688 C 284.976562 47.164062 287.261719 47.164062 289.546875 46.429688 C 295.332031 44.554688 301.335938 43.726562 307.304688 42.710938 C 311.4375 42.011719 315.554688 41.253906 319.699219 40.636719 C 323.617188 40.050781 327.558594 39.578125 331.5 39.113281 C 333.878906 38.832031 336.269531 38.644531 338.652344 38.449219 C 341.125 38.246094 343.59375 38.273438 346.058594 38.523438 C 349.578125 38.851562 353.09375 38.828125 356.605469 38.460938 C 362.027344 37.902344 367.464844 37.355469 372.945312 37.296875 C 379.765625 37.21875 386.582031 37.421875 393.386719 37.855469 C 397.945312 38.152344 402.488281 38.621094 407.039062 39.03125 C 410.617188 39.355469 414.195312 39.683594 417.769531 40.070312 C 420.894531 40.40625 424.011719 40.835938 427.140625 41.203125 C 430.335938 41.578125 433.535156 41.929688 436.734375 42.28125 C 438.894531 42.519531 441.050781 42.75 443.210938 42.972656 C 445.148438 43.167969 447.089844 43.351562 449.023438 43.515625 C 451.039062 43.691406 453.058594 43.820312 455.074219 43.984375 C 460.109375 44.421875 464.910156 43.375 469.5625 41.582031 C 472.757812 40.359375 475.945312 39.027344 479.222656 38.035156 C 481.957031 37.191406 484.753906 36.6875 487.609375 36.527344 C 491.726562 36.355469 495.652344 37.136719 499.390625 38.867188 C 503.015625 40.558594 506.316406 42.738281 509.300781 45.398438 C 516.234375 51.390625 521.8125 58.515625 526.421875 66.371094 C 532.882812 77.398438 537.050781 89.292969 539.605469 101.777344 C 540.6875 107.214844 541.484375 112.695312 542 118.21875 C 542.78125 125.757812 543.027344 133.316406 542.742188 140.890625 C 542.480469 147.339844 541.71875 153.730469 539.664062 159.898438 C 539.054688 161.753906 538.289062 163.539062 537.363281 165.257812 C 536.558594 166.800781 535.5625 168.207031 534.375 169.476562 C 530.292969 173.691406 525.472656 175.023438 519.824219 173.222656 C 516.945312 172.25 514.375 170.746094 512.121094 168.710938 C 508.097656 165.261719 504.90625 161.117188 502.140625 156.628906 C 500.171875 153.515625 498.558594 150.230469 497.300781 146.765625 C 497.203125 146.484375 497.082031 146.210938 496.964844 145.933594 C 496.027344 143.796875 495.363281 143.347656 493.039062 143.367188 C 492.882812 143.355469 492.726562 143.355469 492.570312 143.367188 C 490.660156 143.617188 489.179688 143.085938 488.441406 141.148438 C 488.429688 141.125 488.308594 141.121094 488.15625 141.085938 Z M 480.472656 155.925781 C 481.238281 155.070312 481.410156 154.167969 481.691406 153.324219 C 482.703125 150.203125 483.699219 147.0625 484.675781 143.910156 C 485.464844 141.375 486.523438 139.007812 488.390625 137.066406 C 488.710938 136.742188 488.941406 136.363281 489.082031 135.929688 C 489.808594 133.640625 490.746094 131.4375 491.890625 129.324219 C 492.292969 128.578125 492.59375 127.796875 492.796875 126.972656 C 492.996094 126.148438 493.089844 125.3125 493.074219 124.46875 C 493.058594 123.621094 492.933594 122.789062 492.703125 121.972656 C 492.472656 121.160156 492.144531 120.386719 491.714844 119.65625 C 491.246094 118.796875 490.808594 117.929688 490.308594 117.082031 C 489.828125 116.292969 489.585938 115.4375 489.578125 114.511719 C 489.570312 113.585938 489.800781 112.726562 490.269531 111.929688 C 490.800781 110.941406 491.417969 109.996094 492.042969 109.0625 C 494.441406 105.59375 497.25 102.5 500.472656 99.777344 C 502.113281 98.371094 503.707031 96.878906 505.289062 95.386719 C 506.34375 94.414062 507.226562 93.300781 507.933594 92.050781 C 508.425781 91.191406 508.703125 90.269531 508.757812 89.28125 C 508.816406 88.289062 508.648438 87.339844 508.253906 86.429688 C 507.8125 85.390625 507.238281 84.429688 506.535156 83.542969 C 505.023438 81.582031 503.355469 79.761719 501.527344 78.085938 C 499.070312 75.78125 496.550781 73.53125 494.101562 71.21875 C 493.015625 70.1875 492.003906 69.078125 491 67.96875 C 490.347656 67.226562 489.871094 66.386719 489.566406 65.445312 C 489.128906 64.128906 489.566406 63.105469 490.503906 62.214844 C 491.085938 61.726562 491.738281 61.375 492.46875 61.160156 C 494.515625 60.507812 496.585938 60.425781 498.679688 60.917969 C 502.726562 61.753906 506.226562 63.769531 509.453125 66.289062 C 513.152344 69.15625 516.367188 72.488281 519.09375 76.289062 C 521.824219 80.085938 523.957031 84.195312 525.496094 88.613281 C 527.957031 95.59375 528.746094 102.789062 527.027344 110.066406 C 524.328125 121.519531 517.472656 129.316406 506.25 133.144531 C 503.410156 134.113281 500.46875 134.65625 497.550781 135.304688 C 495.707031 135.65625 493.921875 136.195312 492.191406 136.925781 C 491.097656 137.421875 490.546875 138.160156 490.632812 139.363281 C 490.632812 139.738281 490.632812 140.113281 490.679688 140.484375 C 490.683594 140.683594 490.757812 140.851562 490.898438 140.988281 C 491.039062 141.128906 491.207031 141.203125 491.402344 141.207031 C 492.230469 141.242188 493.054688 141.207031 493.878906 141.207031 C 494.761719 141.207031 495.585938 141.425781 496.347656 141.867188 C 497.113281 142.308594 497.71875 142.910156 498.160156 143.675781 C 498.574219 144.386719 498.914062 145.132812 499.179688 145.914062 C 500.78125 150.21875 502.898438 154.253906 505.523438 158.019531 C 508.027344 161.683594 510.828125 165.097656 514.351562 167.859375 C 516.429688 169.484375 518.65625 170.847656 521.261719 171.476562 C 525.148438 172.414062 528.683594 171.722656 531.753906 169.066406 C 533.109375 167.859375 534.234375 166.46875 535.128906 164.886719 C 536.292969 162.871094 537.207031 160.746094 537.875 158.511719 C 539.617188 152.890625 540.347656 147.101562 540.570312 141.25 C 540.824219 134.878906 540.703125 128.511719 540.203125 122.15625 C 539.707031 115.351562 538.796875 108.605469 537.46875 101.914062 C 535.34375 91.195312 531.769531 80.988281 526.746094 71.285156 C 522.492188 63.015625 517.027344 55.644531 510.351562 49.175781 C 507.515625 46.371094 504.371094 43.96875 500.914062 41.976562 C 495.761719 39.117188 490.355469 37.964844 484.480469 38.972656 C 481.382812 39.546875 478.367188 40.398438 475.433594 41.535156 C 473.054688 42.421875 470.691406 43.375 468.296875 44.234375 C 464.902344 45.519531 461.386719 46.160156 457.757812 46.152344 C 454.988281 46.097656 452.222656 45.828125 449.460938 45.605469 C 446.996094 45.398438 444.554688 45.171875 442.082031 44.929688 C 439.773438 44.707031 437.464844 44.460938 435.15625 44.199219 C 432.113281 43.855469 429.066406 43.484375 426.015625 43.136719 C 422.816406 42.777344 419.617188 42.429688 416.417969 42.078125 C 412.847656 41.683594 409.28125 41.230469 405.703125 40.929688 C 400.855469 40.511719 395.988281 40.277344 391.148438 39.867188 C 385.992188 39.425781 380.816406 39.429688 375.648438 39.398438 C 370.097656 39.34375 364.566406 39.65625 359.054688 40.335938 C 357.273438 40.558594 355.476562 40.707031 353.6875 40.804688 C 351.4375 40.972656 349.191406 40.933594 346.949219 40.691406 C 343.738281 40.320312 340.523438 40.292969 337.304688 40.613281 C 333.800781 40.902344 330.277344 41.203125 326.8125 41.75 C 323.117188 42.332031 319.410156 42.820312 315.714844 43.402344 C 311.730469 44.035156 307.75 44.710938 303.765625 45.40625 C 299.347656 46.171875 294.910156 46.851562 290.648438 48.308594 C 289.140625 48.816406 287.59375 49.0625 286.003906 49.042969 C 284.414062 49.027344 282.871094 48.75 281.375 48.210938 C 280.523438 47.925781 279.671875 47.632812 278.828125 47.335938 C 276.929688 46.660156 275.027344 45.972656 273.128906 45.292969 C 270.800781 44.421875 268.394531 43.910156 265.910156 43.75 C 263.429688 43.589844 260.976562 43.792969 258.554688 44.355469 C 254.371094 45.335938 250.121094 45.527344 245.835938 45.417969 C 242.910156 45.347656 239.996094 45.21875 237.085938 44.949219 C 234.480469 44.691406 231.859375 44.53125 229.246094 44.332031 C 225.886719 44.066406 222.527344 43.808594 219.167969 43.535156 C 213.976562 43.121094 209.054688 44.175781 204.289062 46.175781 C 195.386719 49.925781 188.0625 55.714844 182.003906 63.164062 C 178.039062 67.957031 175.136719 73.320312 173.300781 79.261719 C 171.070312 86.585938 169.691406 94.09375 168.683594 101.671875 C 168.121094 105.898438 167.628906 110.140625 167.199219 114.390625 C 166.730469 119.007812 166.359375 123.636719 165.984375 128.265625 C 165.75 131.105469 165.59375 133.949219 165.390625 136.789062 C 165.015625 142.089844 164.617188 147.398438 164.261719 152.71875 C 164.1875 153.988281 164.1875 155.261719 164.261719 156.535156 C 164.328125 159.191406 164.921875 161.726562 166.046875 164.132812 C 166.398438 164.90625 166.835938 165.625 167.355469 166.292969 C 167.878906 166.960938 168.46875 167.5625 169.128906 168.089844 C 169.789062 168.621094 170.503906 169.070312 171.269531 169.433594 C 172.035156 169.796875 172.832031 170.070312 173.660156 170.246094 C 175.742188 170.691406 177.824219 170.691406 179.90625 170.246094 C 182.992188 169.632812 185.148438 167.816406 186.464844 164.992188 C 187.191406 163.421875 187.726562 161.789062 188.070312 160.09375 C 188.78125 156.40625 189.21875 152.6875 189.386719 148.9375 C 189.570312 146.171875 189.671875 143.394531 190.519531 140.722656 C 190.683594 140.0625 190.699219 139.398438 190.558594 138.734375 C 190.023438 135.015625 189.808594 131.28125 189.921875 127.527344 C 190.164062 122.664062 190.421875 117.796875 190.859375 112.945312 C 191.375 107.277344 192.0625 101.628906 192.882812 95.996094 C 193.871094 89.25 195.007812 82.535156 196.628906 75.90625 C 197.40625 72.554688 198.421875 69.273438 199.683594 66.070312 C 200.214844 64.738281 200.9375 63.523438 201.851562 62.417969 C 202.765625 61.316406 203.828125 60.378906 205.035156 59.609375 C 206.929688 58.386719 208.9375 57.398438 211.058594 56.644531 C 217.289062 54.355469 223.773438 53.304688 230.332031 52.621094 C 233.011719 52.34375 235.710938 52.234375 238.402344 52 C 241.988281 51.714844 245.582031 51.65625 249.175781 51.824219 C 251.339844 51.910156 253.523438 52.027344 255.617188 52.675781 C 259.070312 53.742188 260.269531 56.375 259.675781 59.414062 C 259.15625 61.839844 258.316406 64.152344 257.160156 66.351562 C 254.226562 72.164062 251.285156 77.980469 248.257812 83.742188 C 246.726562 86.65625 245.011719 89.476562 243.324219 92.304688 C 242.328125 93.890625 241.234375 95.40625 240.042969 96.847656 C 238.464844 98.808594 236.546875 99.34375 234.203125 98.808594 C 232.894531 98.5 231.605469 98.109375 230.324219 97.710938 C 227.042969 96.691406 223.765625 95.59375 220.484375 94.613281 C 217.835938 93.773438 215.121094 93.257812 212.347656 93.070312 C 209.828125 92.945312 208.050781 94.109375 206.867188 96.265625 C 206.324219 97.183594 206.011719 98.175781 205.929688 99.238281 C 205.886719 100.214844 205.84375 101.1875 205.882812 102.15625 C 205.992188 104.800781 206.78125 107.3125 207.457031 109.839844 C 207.808594 111.0625 208.09375 112.300781 208.308594 113.554688 C 208.902344 117.894531 208.832031 122.222656 208.097656 126.539062 C 207.820312 128.554688 207.238281 130.476562 206.351562 132.308594 C 205.992188 133.113281 205.464844 133.78125 204.761719 134.316406 C 204.0625 134.851562 203.277344 135.183594 202.40625 135.3125 C 201.519531 135.453125 200.640625 135.617188 199.753906 135.78125 C 198.566406 135.957031 197.414062 136.277344 196.304688 136.742188 C 194.878906 137.382812 193.832031 138.410156 193.164062 139.824219 C 192.980469 140.140625 192.980469 140.457031 193.167969 140.773438 C 193.359375 141.089844 193.636719 141.242188 194 141.230469 C 194.601562 141.242188 195.199219 141.183594 195.785156 141.054688 C 197.96875 140.527344 200.179688 140.160156 202.398438 139.796875 C 203.667969 139.613281 204.867188 139.214844 205.996094 138.601562 C 207.121094 137.988281 208.109375 137.199219 208.957031 136.234375 C 209.636719 135.4375 210.277344 134.605469 210.871094 133.742188 C 211.6875 132.578125 212.417969 131.347656 213.257812 130.203125 C 214.28125 128.667969 215.628906 127.515625 217.304688 126.742188 C 218 126.433594 218.730469 126.289062 219.492188 126.320312 C 220.25 126.347656 220.96875 126.542969 221.636719 126.90625 C 222.765625 127.539062 223.710938 128.382812 224.472656 129.429688 C 225.472656 130.75 226.335938 132.15625 227.066406 133.644531 C 228.800781 137.132812 230.285156 140.726562 231.523438 144.421875 C 231.964844 145.773438 232.296875 147.152344 232.515625 148.5625 C 233.171875 152.492188 233.429688 156.449219 233.292969 160.433594 C 233.1875 164.476562 233.070312 168.523438 232.824219 172.5625 C 232.355469 179.738281 232.019531 186.925781 231.777344 194.113281 C 231.496094 202.277344 231.574219 210.441406 232 218.609375 C 232.253906 223.101562 232.804688 227.558594 233.660156 231.976562 C 235.554688 241.710938 238.476562 251.128906 242.425781 260.226562 C 245.714844 268.132812 249.757812 275.636719 254.550781 282.738281 C 256.15625 285.191406 257.992188 287.457031 260.066406 289.53125 C 260.710938 290.160156 261.410156 290.722656 262.15625 291.222656 C 263.058594 291.808594 263.667969 291.636719 264.238281 290.753906 C 264.976562 289.523438 265.496094 288.207031 265.796875 286.804688 C 266.898438 282.121094 267.5 277.371094 267.597656 272.5625 C 267.875 266.414062 267.726562 260.277344 267.15625 254.148438 C 266.738281 250.273438 266.21875 246.425781 265.042969 242.679688 C 264.027344 239.46875 262.851562 236.3125 261.515625 233.21875 C 258.082031 225.078125 254.5625 216.980469 251.179688 208.820312 C 248.636719 202.8125 246.535156 196.652344 244.867188 190.347656 C 243.726562 185.914062 242.832031 181.445312 242.929688 176.820312 C 243.082031 170.058594 245.886719 164.707031 251.527344 160.890625 C 253.40625 159.632812 255.40625 158.613281 257.527344 157.835938 C 258.019531 157.660156 258.511719 157.480469 259.019531 157.339844 C 259.359375 157.265625 259.644531 157.097656 259.882812 156.839844 C 260.117188 156.582031 260.257812 156.28125 260.300781 155.933594 C 260.578125 154.609375 260.984375 153.328125 261.523438 152.089844 C 264.636719 144.753906 269.675781 139.046875 276.351562 134.789062 C 278.378906 133.464844 280.5625 132.503906 282.902344 131.902344 C 285.246094 131.300781 287.621094 131.089844 290.03125 131.269531 C 295.035156 131.628906 299.289062 133.554688 302.640625 137.335938 C 304.1875 139.035156 305.222656 141.003906 305.746094 143.242188 C 306.273438 145.585938 306.683594 147.929688 307.03125 150.308594 C 307.292969 151.894531 307.183594 153.457031 306.707031 154.992188 C 306.515625 155.613281 306.199219 156.15625 305.75 156.625 C 305.304688 157.09375 304.777344 157.441406 304.167969 157.660156 C 303.554688 157.898438 302.675781 157.554688 302.324219 158.234375 C 302.03125 158.800781 302.042969 159.539062 301.921875 160.199219 C 301.851562 160.570312 301.8125 160.945312 301.707031 161.300781 C 299.707031 168.328125 293.816406 172.214844 286.246094 169.816406 C 281.183594 168.210938 278.710938 163.542969 278.464844 159.242188 C 278.386719 158.242188 278.59375 157.304688 279.085938 156.433594 C 279.808594 155.175781 281.78125 155.109375 282.464844 156.328125 C 282.792969 156.914062 283.097656 157.515625 283.402344 158.113281 C 283.851562 158.996094 284.457031 159.75 285.226562 160.375 C 285.992188 160.996094 286.851562 161.4375 287.808594 161.699219 C 288.910156 161.992188 290.023438 162.054688 291.152344 161.886719 C 292.792969 161.703125 294.179688 161.066406 294.957031 159.492188 C 295.359375 158.625 295.929688 157.886719 296.671875 157.28125 C 297.410156 156.675781 298.242188 156.261719 299.171875 156.039062 C 299.375 155.953125 299.566406 155.84375 299.738281 155.710938 C 299.613281 154.996094 299.347656 154.335938 298.945312 153.726562 C 298.542969 153.121094 298.039062 152.621094 297.429688 152.226562 C 295.882812 151.136719 294.203125 150.332031 292.382812 149.8125 C 288.5625 148.742188 285.121094 149.480469 282.171875 152.203125 C 281.289062 153.015625 280.433594 153.855469 279.542969 154.65625 C 278.929688 155.203125 278.300781 155.738281 277.640625 156.234375 C 276.597656 157.058594 275.410156 157.4375 274.082031 157.367188 C 273.109375 157.320312 272.136719 157.332031 271.160156 157.328125 C 268.449219 157.328125 265.796875 157.828125 263.152344 158.320312 C 262.0625 158.523438 261.84375 158.847656 261.78125 160.027344 C 261.566406 164.109375 262.695312 167.644531 265.65625 170.636719 C 272.730469 177.785156 280.179688 184.527344 287.867188 190.96875 C 290.460938 193.132812 293.148438 195.15625 295.917969 197.085938 C 297.84375 198.433594 299.738281 198.652344 301.8125 197.609375 C 302.746094 197.140625 303.71875 196.726562 304.621094 196.179688 C 306.402344 195.074219 308.167969 193.9375 309.875 192.722656 C 313.714844 189.976562 317.347656 186.953125 320.945312 183.898438 C 322.03125 182.960938 323.109375 182.054688 324.222656 181.144531 C 324.722656 180.664062 325.308594 180.351562 325.988281 180.207031 C 326.175781 180.164062 326.359375 180.164062 326.546875 180.207031 C 326.730469 180.25 326.898438 180.328125 327.046875 180.449219 C 327.195312 180.570312 327.3125 180.714844 327.394531 180.886719 C 327.472656 181.058594 327.515625 181.238281 327.511719 181.429688 C 327.535156 182.042969 327.414062 182.625 327.140625 183.171875 C 326.714844 184.042969 326.359375 184.957031 325.886719 185.804688 C 324.382812 188.480469 322.882812 191.160156 321.300781 193.769531 C 315.496094 203.394531 309.609375 212.980469 303.851562 222.609375 C 298.828125 231.042969 293.816406 239.476562 289.386719 248.234375 C 283.171875 260.425781 278.457031 273.175781 275.234375 286.476562 C 273.457031 293.910156 272.082031 301.414062 271.113281 308.996094 C 270.351562 314.957031 269.835938 320.910156 270.273438 326.921875 C 270.515625 330.980469 271.304688 334.933594 272.636719 338.777344 C 275.070312 345.523438 279.265625 350.808594 285.707031 354.144531 C 289.214844 355.902344 292.917969 357.019531 296.8125 357.492188 C 301.609375 358.140625 306.375 357.972656 311.113281 356.992188 C 315.59375 356.035156 319.890625 354.558594 324.011719 352.5625 C 324.109375 352.515625 324.152344 352.34375 324.222656 352.222656 C 323.863281 351.847656 323.394531 352.015625 322.992188 352.03125 C 319.230469 352.128906 315.507812 351.816406 311.816406 351.09375 C 308.394531 350.523438 305.105469 349.507812 301.957031 348.042969 C 295.292969 344.765625 291.027344 339.582031 289.167969 332.40625 C 287.867188 327.394531 287.933594 322.316406 288.515625 317.226562 C 289.171875 312.085938 290.304688 307.054688 291.917969 302.132812 C 294.636719 293.4375 298.265625 285.171875 303.449219 277.640625 C 310.335938 267.628906 319.222656 260.070312 330.621094 255.621094 C 332.445312 254.914062 334.054688 253.875 335.449219 252.5 C 340.476562 247.648438 345.820312 243.191406 351.929688 239.738281 C 353.535156 238.832031 354.804688 237.582031 355.738281 235.992188 C 356.035156 235.472656 356.378906 234.980469 356.761719 234.519531 C 356.894531 234.378906 357.0625 234.296875 357.253906 234.273438 C 357.449219 234.246094 357.628906 234.285156 357.796875 234.390625 C 358.003906 234.488281 358.160156 234.640625 358.265625 234.847656 C 358.367188 235.054688 358.394531 235.273438 358.34375 235.5 C 358.242188 235.78125 358.117188 236.050781 357.972656 236.3125 C 356.765625 238.640625 355.011719 240.4375 352.710938 241.695312 C 347.714844 244.507812 343.285156 248.070312 339.09375 251.9375 C 338.796875 252.210938 338.320312 252.40625 338.421875 252.960938 C 338.503906 252.960938 338.582031 253.023438 338.648438 253.007812 C 344.871094 251.480469 351.21875 251.070312 357.585938 250.976562 C 365.617188 250.84375 373.597656 251.4375 381.523438 252.75 C 385.675781 253.398438 389.726562 254.429688 393.679688 255.84375 C 396.089844 256.710938 398.367188 257.835938 400.515625 259.222656 C 402.058594 260.195312 403.355469 261.425781 404.410156 262.914062 C 405.464844 264.398438 406.199219 266.03125 406.605469 267.804688 C 408.140625 274.15625 406.941406 279.988281 403.261719 285.332031 C 402.484375 286.449219 401.558594 287.421875 400.484375 288.253906 C 397.273438 290.78125 390.992188 292.003906 386.769531 287.507812 C 385.953125 286.636719 385.195312 285.703125 384.429688 284.792969 C 383.9375 284.121094 383.332031 283.570312 382.609375 283.148438 C 381.464844 282.5625 380.066406 282.621094 379.230469 283.332031 C 378.253906 284.160156 378.097656 285.207031 378.394531 286.394531 C 378.589844 287.171875 378.9375 287.871094 379.445312 288.488281 C 379.953125 289.109375 380.566406 289.589844 381.289062 289.933594 C 382.640625 290.574219 384.046875 291.058594 385.507812 291.386719 C 387.039062 291.734375 388.542969 292.164062 390.027344 292.679688 C 392.566406 293.648438 393.203125 295.085938 392.417969 297.628906 C 392.347656 297.839844 392.265625 298.050781 392.183594 298.261719 C 391.039062 301.25 389.554688 304.0625 387.734375 306.691406 C 385.910156 309.324219 383.804688 311.699219 381.40625 313.820312 C 378.558594 316.332031 375.339844 318.191406 371.570312 318.976562 C 369.71875 319.292969 367.851562 319.425781 365.976562 319.367188 C 365.246094 319.367188 365.039062 319.589844 365.070312 320.304688 C 365.28125 323.605469 365.863281 326.839844 366.824219 330.003906 C 367.132812 331.023438 367.648438 331.925781 368.367188 332.710938 C 369.546875 333.972656 370.683594 335.269531 371.921875 336.457031 C 378.933594 343.300781 386.757812 349.035156 395.390625 353.667969 C 402.296875 357.359375 409.550781 360.105469 417.328125 361.285156 C 420.3125 361.800781 423.28125 361.710938 426.226562 361.007812 C 428.097656 360.527344 429.824219 359.734375 431.410156 358.636719 C 432.996094 357.539062 434.339844 356.199219 435.449219 354.617188 C 437.488281 351.703125 438.941406 348.515625 439.808594 345.066406 C 441.386719 339.308594 441.765625 333.417969 441.765625 327.484375 C 441.71875 321.027344 441.179688 314.613281 440.152344 308.242188 C 438.496094 297.335938 435.960938 286.644531 432.539062 276.160156 C 428.261719 262.933594 422.558594 250.351562 415.433594 238.417969 C 411.898438 232.519531 407.527344 227.328125 402.316406 222.84375 C 398.175781 219.367188 393.777344 216.261719 389.113281 213.523438 C 385.332031 211.242188 381.523438 209 377.765625 206.675781 C 375.433594 205.28125 373.332031 203.59375 371.46875 201.609375 C 369.511719 199.539062 368.28125 197.097656 367.789062 194.289062 C 367.089844 190.230469 366.570312 186.148438 366.082031 182.058594 C 365.554688 177.59375 365.042969 173.128906 364.542969 168.664062 C 363.996094 163.75 363.472656 158.832031 362.960938 153.921875 C 362.574219 150.121094 362.222656 146.316406 361.867188 142.511719 C 361.464844 138.265625 361.050781 134.015625 360.671875 129.761719 C 360.3125 125.730469 359.976562 121.699219 359.652344 117.667969 C 359.246094 112.742188 358.820312 107.832031 358.472656 102.882812 C 358.175781 98.695312 358.007812 94.507812 357.714844 90.320312 C 357.574219 88.066406 357.667969 85.824219 357.996094 83.589844 C 358.144531 82.386719 358.539062 81.265625 359.175781 80.230469 C 359.53125 79.632812 360.019531 79.183594 360.644531 78.875 C 361.269531 78.570312 361.925781 78.460938 362.617188 78.546875 C 363.371094 78.597656 364.089844 78.789062 364.769531 79.121094 C 365.769531 79.636719 366.707031 80.246094 367.582031 80.949219 C 369.578125 82.542969 371.429688 84.289062 373.136719 86.1875 C 375.910156 89.230469 378.65625 92.308594 381.398438 95.382812 C 382.972656 97.203125 384.699219 98.859375 386.589844 100.355469 C 387.824219 101.347656 389.183594 102.128906 390.664062 102.695312 C 391.898438 103.15625 393.148438 103.207031 394.414062 102.839844 C 394.761719 102.71875 395.117188 102.617188 395.476562 102.535156 C 395.667969 102.515625 395.847656 102.554688 396.015625 102.652344 C 396.183594 102.75 396.304688 102.886719 396.378906 103.066406 C 396.472656 103.238281 396.503906 103.417969 396.464844 103.609375 C 396.429688 103.804688 396.335938 103.960938 396.1875 104.085938 C 395.921875 104.351562 395.621094 104.5625 395.285156 104.726562 C 393.925781 105.316406 392.535156 105.410156 391.109375 105 C 389.414062 104.574219 387.851562 103.855469 386.425781 102.839844 C 384.148438 101.238281 382.09375 99.382812 380.269531 97.28125 C 378.011719 94.773438 375.777344 92.25 373.53125 89.734375 C 371.699219 87.648438 369.757812 85.667969 367.703125 83.800781 C 366.5625 82.703125 365.289062 81.789062 363.886719 81.050781 C 362.011719 80.152344 360.984375 80.617188 360.339844 82.640625 C 360.246094 82.921875 360.203125 83.222656 360.136719 83.511719 C 359.816406 84.910156 359.6875 86.324219 359.75 87.757812 C 359.941406 92.023438 360.132812 96.289062 360.382812 100.550781 C 360.554688 103.542969 360.820312 106.527344 361.054688 109.515625 C 361.410156 114.070312 361.761719 118.628906 362.148438 123.179688 C 362.523438 127.582031 362.933594 131.980469 363.34375 136.386719 C 363.6875 140.113281 364.039062 143.84375 364.402344 147.566406 C 364.769531 151.316406 365.164062 155.023438 365.554688 158.746094 C 365.914062 162.246094 366.269531 165.773438 366.664062 169.246094 C 367.183594 173.859375 367.714844 178.472656 368.289062 183.078125 C 368.726562 186.574219 369.226562 190.054688 369.726562 193.542969 C 369.929688 194.886719 370.339844 196.164062 370.960938 197.375 C 371.582031 198.585938 372.382812 199.664062 373.359375 200.609375 C 374.949219 202.210938 376.707031 203.609375 378.625 204.800781 C 381.03125 206.3125 383.472656 207.777344 385.914062 209.230469 C 389.515625 211.375 393.128906 213.507812 396.59375 215.878906 C 404.738281 221.445312 411.628906 228.226562 416.777344 236.695312 C 423.867188 248.394531 429.574219 260.730469 433.90625 273.703125 C 437.675781 284.867188 440.445312 296.273438 442.210938 307.921875 C 443.355469 315.492188 444.085938 323.082031 443.863281 330.753906 C 443.777344 334.882812 443.316406 338.96875 442.480469 343.011719 C 441.621094 347.066406 440.320312 350.976562 438.085938 354.484375 C 433.492188 361.722656 426.746094 364.414062 418.460938 363.550781 C 413.457031 363.03125 408.621094 361.628906 403.9375 359.855469 C 396.320312 356.980469 389.324219 352.960938 382.734375 348.226562 C 377.351562 344.382812 372.378906 340.066406 367.816406 335.277344 C 365.910156 333.371094 364.703125 331.09375 364.195312 328.449219 C 363.871094 326.691406 363.507812 324.941406 363.164062 323.207031 C 363.066406 323.300781 362.910156 323.378906 362.867188 323.5 C 362.730469 323.847656 362.632812 324.207031 362.570312 324.578125 C 361.949219 328.945312 359.757812 332.414062 356.527344 335.300781 C 354.4375 337.125 352.253906 338.816406 349.964844 340.382812 C 345.910156 343.195312 341.703125 345.800781 337.402344 348.246094 C 337.007812 348.472656 336.363281 348.527344 336.410156 349.265625 C 338.667969 349.101562 340.902344 348.949219 343.140625 348.796875 C 346.273438 348.570312 349.410156 348.238281 352.546875 348.125 C 359.21875 347.878906 365.886719 347.894531 372.5 348.976562 C 376.046875 349.558594 379.554688 350.285156 382.902344 351.648438 C 384.308594 352.191406 385.613281 352.917969 386.816406 353.820312 C 387.949219 354.628906 388.753906 355.6875 389.230469 356.992188 C 389.8125 358.703125 389.300781 359.898438 387.648438 360.664062 C 386.613281 361.144531 385.527344 361.40625 384.390625 361.449219 C 380.570312 361.636719 376.75 361.582031 372.9375 361.285156 C 370.476562 361.058594 368.011719 360.847656 365.554688 360.628906 C 362.644531 360.375 359.734375 360.097656 356.824219 359.863281 C 354.136719 359.644531 351.453125 359.367188 348.757812 359.292969 C 345.011719 359.191406 341.261719 359.253906 337.515625 359.230469 C 334.371094 359.210938 331.4375 359.980469 328.710938 361.542969 C 327.863281 362.011719 327.019531 362.507812 326.199219 363.03125 C 322.851562 365.160156 319.515625 367.3125 316.160156 369.4375 C 314.390625 370.554688 312.59375 371.636719 310.796875 372.714844 C 308.144531 374.296875 305.28125 374.492188 302.324219 373.886719 C 301.007812 373.621094 299.710938 373.253906 298.398438 372.949219 C 296.804688 372.507812 295.179688 372.296875 293.523438 372.3125 C 288.171875 372.5625 284.621094 376.289062 284.621094 381.625 C 284.691406 383.128906 284.9375 384.601562 285.363281 386.042969 C 285.964844 388.320312 286.0625 390.621094 285.65625 392.941406 C 285.097656 395.761719 284.035156 398.382812 282.472656 400.800781 C 280.128906 404.550781 277.121094 407.828125 274.039062 410.992188 C 273.453125 411.585938 272.777344 412.046875 272.007812 412.375 C 271.242188 412.707031 270.441406 412.878906 269.605469 412.894531 C 267.9375 412.964844 266.328125 412.695312 264.773438 412.082031 C 262.679688 411.242188 260.726562 410.148438 258.921875 408.804688 C 255.601562 406.332031 252.578125 403.539062 249.851562 400.429688 C 244.675781 394.578125 240.054688 388.320312 235.988281 381.648438 C 231.554688 374.519531 227.398438 367.238281 224.054688 359.523438 C 218.433594 346.582031 215.683594 333 215.082031 318.960938 C 214.703125 310.109375 215.234375 301.285156 216.019531 292.472656 C 216.488281 287.320312 217.089844 282.1875 217.558594 277.042969 C 217.734375 275.109375 217.726562 273.152344 217.769531 271.207031 C 217.769531 270.878906 217.871094 270.4375 217.335938 270.269531 C 216.582031 270.808594 216.289062 271.675781 215.898438 272.464844 C 214.632812 275.085938 213.589844 277.789062 212.765625 280.582031 C 210.449219 288.265625 208.761719 296.085938 207.710938 304.042969 C 206.785156 310.804688 206.257812 317.597656 206.132812 324.421875 C 205.980469 332.679688 206.503906 340.894531 207.703125 349.066406 C 208.6875 356.144531 210.472656 363.015625 213.058594 369.679688 C 217.597656 381.289062 224.449219 391.390625 233.132812 400.28125 C 240.128906 407.449219 247.996094 413.535156 256.375 418.984375 C 263.976562 423.929688 271.949219 428.230469 279.945312 432.480469 C 283.1875 434.203125 286.457031 435.867188 289.609375 437.738281 C 295.4375 441.191406 300.601562 445.527344 305.539062 450.121094 C 310.65625 454.855469 315.515625 459.855469 320.453125 464.773438 C 324.90625 469.21875 329.386719 473.648438 334.34375 477.550781 C 338.058594 480.480469 341.964844 483.097656 346.390625 484.871094 C 349.691406 486.253906 353.125 486.886719 356.699219 486.777344 C 360.019531 486.609375 363.210938 485.867188 366.265625 484.554688 C 371.292969 482.464844 375.761719 479.46875 379.976562 476.082031 C 386.71875 470.664062 392.683594 464.441406 398.320312 457.910156 C 403.265625 452.183594 408.125 446.382812 412.898438 440.503906 C 415.335938 437.496094 418.074219 434.792969 421.109375 432.386719 C 424.144531 429.984375 427.402344 427.9375 430.890625 426.253906 C 436.007812 423.765625 441.304688 421.695312 446.566406 419.550781 C 456.570312 415.460938 466.167969 410.601562 475.089844 404.472656 C 480.457031 400.832031 485.226562 396.527344 489.394531 391.558594 C 496.019531 383.59375 500.460938 374.507812 503.207031 364.566406 C 505.917969 354.730469 506.953125 344.722656 506.898438 334.5625 C 506.839844 332.308594 506.597656 330.078125 506.171875 327.867188 C 505.167969 322.332031 503.835938 316.878906 502.179688 311.503906 C 498.445312 299.011719 494.007812 286.773438 488.871094 274.792969 C 487.359375 271.28125 485.804688 267.796875 483.953125 264.453125 C 483.535156 263.5625 482.988281 262.765625 482.3125 262.054688 C 482.121094 261.855469 481.894531 261.738281 481.621094 261.703125 C 481.351562 261.667969 481.101562 261.722656 480.867188 261.867188 C 480.144531 262.285156 479.519531 262.824219 478.992188 263.476562 C 477.824219 264.847656 476.792969 266.320312 475.90625 267.890625 C 473.75 271.664062 471.621094 275.449219 469.519531 279.25 C 467.085938 283.640625 464.617188 288.007812 461.789062 292.160156 C 460.390625 294.296875 458.816406 296.292969 457.0625 298.15625 C 456.25 299.046875 455.3125 299.777344 454.253906 300.351562 C 452.195312 301.382812 450.367188 300.75 449.449219 298.652344 C 449.078125 297.75 448.84375 296.8125 448.753906 295.839844 C 448.378906 292.304688 448.753906 288.8125 449.296875 285.324219 C 449.714844 282.488281 450.472656 279.75 451.574219 277.101562 C 452.671875 274.457031 454.082031 271.988281 455.796875 269.695312 C 457.347656 267.667969 459.015625 265.742188 460.800781 263.921875 C 463.214844 261.453125 465.808594 259.1875 468.410156 256.921875 C 471.621094 254.109375 474.085938 250.753906 475.8125 246.851562 C 477.207031 243.683594 478.246094 240.40625 478.933594 237.011719 C 480.179688 230.910156 480.957031 224.746094 481.273438 218.527344 C 481.457031 215.460938 481.632812 212.394531 481.8125 209.328125 C 482.328125 200.574219 482.75 191.816406 482.644531 183.042969 C 482.636719 178.242188 482.300781 173.460938 481.636719 168.707031 C 481.355469 166.355469 480.847656 164.050781 480.121094 161.796875 C 479.949219 161.796875 479.855469 161.746094 479.804688 161.796875 C 479.609375 161.902344 479.429688 162.03125 479.265625 162.179688 C 476.214844 165.152344 472.59375 165.898438 468.488281 165.109375 C 465.589844 164.515625 462.941406 163.347656 460.550781 161.597656 C 458.589844 160.21875 456.75 158.671875 454.832031 157.234375 C 453.761719 156.425781 452.636719 155.679688 451.519531 154.921875 C 451.230469 154.726562 450.90625 154.453125 450.523438 154.792969 C 450.476562 155.261719 450.78125 155.632812 450.941406 156.039062 C 451.378906 157.097656 451.566406 158.195312 451.496094 159.339844 C 451.429688 160.480469 451.117188 161.550781 450.554688 162.550781 C 447.816406 167.554688 443.804688 171.101562 438.296875 172.792969 C 436.261719 173.464844 434.195312 173.578125 432.097656 173.132812 C 426.839844 171.96875 425.671875 166.640625 426.828125 163.117188 C 426.851562 163.046875 426.886719 162.980469 426.925781 162.914062 C 427.019531 162.703125 427.167969 162.539062 427.367188 162.421875 C 427.566406 162.304688 427.78125 162.253906 428.011719 162.273438 C 428.390625 162.28125 428.746094 162.378906 429.082031 162.558594 C 430.953125 163.796875 433.039062 163.824219 435.171875 163.671875 C 438.875 163.402344 440.1875 161.234375 440.378906 158.589844 C 440.539062 156.390625 440.460938 154.152344 441.523438 152.03125 C 438.988281 151.738281 436.480469 151.894531 434 152.5 C 429.535156 153.617188 426.574219 156.25 425.769531 160.933594 C 425.539062 162.261719 425.300781 163.582031 425 164.902344 C 424.722656 166.535156 424.226562 168.09375 423.511719 169.585938 C 421.996094 172.472656 419.578125 173.835938 416.335938 173.601562 C 412.6875 173.335938 410.21875 171.375 408.84375 168.042969 C 408.070312 166.121094 407.820312 164.132812 408.101562 162.082031 C 408.304688 160.148438 408.726562 158.265625 409.371094 156.433594 C 411.074219 151.691406 413.285156 147.199219 416.003906 142.957031 C 421.054688 135.28125 427.84375 130.015625 436.796875 127.5 C 438.359375 127.035156 439.953125 126.71875 441.574219 126.546875 C 443.195312 126.375 444.820312 126.351562 446.445312 126.472656 C 448.070312 126.597656 449.671875 126.867188 451.25 127.28125 C 452.824219 127.699219 454.351562 128.253906 455.828125 128.945312 C 458.5 130.167969 461 131.679688 463.324219 133.480469 C 466.777344 136.152344 469.867188 139.191406 472.589844 142.605469 C 475.316406 146.015625 477.597656 149.699219 479.4375 153.660156 C 479.734375 154.367188 480.058594 155.027344 480.472656 155.925781 Z M 329.023438 258.851562 C 328.429688 258.648438 328.054688 258.960938 327.675781 259.144531 C 324.769531 260.539062 322.007812 262.183594 319.394531 264.074219 C 312.113281 269.339844 306.46875 276.070312 302.027344 283.863281 C 297.027344 292.734375 293.515625 302.164062 291.484375 312.144531 C 290.359375 317.433594 289.792969 322.785156 290.496094 328.214844 C 291.625 336.933594 295.929688 343.269531 304.140625 346.773438 C 308.453125 348.617188 313.003906 349.425781 317.636719 349.859375 C 321.382812 350.203125 325.132812 349.941406 328.878906 349.859375 C 329.789062 349.816406 330.640625 349.566406 331.429688 349.113281 C 337.757812 345.847656 343.835938 342.167969 349.664062 338.074219 C 351.695312 336.664062 353.632812 335.132812 355.472656 333.472656 C 356.839844 332.277344 357.960938 330.886719 358.832031 329.292969 C 359.707031 327.703125 360.28125 326.007812 360.554688 324.210938 C 360.765625 322.808594 360.828125 321.402344 360.914062 319.964844 C 360.984375 318.882812 360.859375 318.683594 359.765625 318.394531 C 356.9375 317.632812 354.246094 316.523438 351.699219 315.066406 C 347.554688 312.726562 343.859375 309.835938 340.949219 306.011719 C 339.816406 304.589844 338.992188 303.007812 338.464844 301.265625 C 337.238281 296.910156 339.46875 292.832031 343.800781 291.597656 C 344.53125 291.433594 345.269531 291.335938 346.015625 291.304688 C 349.046875 291.027344 351.359375 289.519531 353.160156 287.144531 C 353.613281 286.539062 353.945312 285.875 354.164062 285.148438 C 354.253906 284.921875 354.308594 284.683594 354.320312 284.433594 C 354.332031 284.1875 354.300781 283.945312 354.234375 283.710938 C 354.167969 283.472656 354.0625 283.253906 353.921875 283.050781 C 353.777344 282.847656 353.609375 282.671875 353.410156 282.527344 C 351.945312 281.363281 350.332031 280.753906 348.402344 281.257812 C 346.527344 281.753906 344.996094 282.769531 343.804688 284.300781 C 343.289062 284.9375 342.847656 285.636719 342.402344 286.320312 C 341.746094 287.328125 340.964844 288.226562 340.058594 289.019531 C 339.535156 289.480469 338.949219 289.84375 338.300781 290.109375 C 337.65625 290.375 336.984375 290.53125 336.289062 290.574219 C 335.589844 290.617188 334.90625 290.542969 334.230469 290.359375 C 333.558594 290.171875 332.933594 289.882812 332.355469 289.488281 C 331.601562 288.996094 330.910156 288.421875 330.289062 287.769531 C 328.75 286.132812 327.265625 284.445312 325.785156 282.761719 C 324.941406 281.796875 324.230469 280.742188 323.648438 279.601562 C 322.9375 278.308594 322.476562 276.933594 322.257812 275.472656 C 322.039062 274.015625 322.082031 272.5625 322.382812 271.117188 C 322.738281 269.429688 323.300781 267.808594 324.070312 266.261719 C 325.058594 264.320312 326.230469 262.5 327.589844 260.796875 C 328.042969 260.15625 328.519531 259.5 329.023438 258.851562 Z M 361.042969 316.4375 C 361.09375 315.320312 361.117188 314.421875 361.1875 313.53125 C 361.285156 312.261719 361.417969 310.992188 361.546875 309.726562 C 361.570312 309.425781 361.636719 309.136719 361.753906 308.859375 C 361.832031 308.640625 361.96875 308.46875 362.160156 308.339844 C 362.355469 308.214844 362.566406 308.15625 362.796875 308.167969 C 363.214844 308.195312 363.507812 308.402344 363.675781 308.785156 C 363.792969 309.0625 363.867188 309.347656 363.90625 309.648438 C 364.039062 310.6875 364.15625 311.726562 364.269531 312.773438 C 364.382812 313.816406 364.476562 315.007812 364.625 316.121094 C 364.753906 317.097656 364.910156 317.238281 365.90625 317.316406 C 367.9375 317.457031 369.941406 317.261719 371.910156 316.734375 C 375.121094 315.949219 377.820312 314.222656 380.246094 312.050781 C 384.46875 308.210938 387.675781 303.65625 389.867188 298.382812 C 390.101562 297.832031 390.296875 297.269531 390.449219 296.6875 C 390.738281 295.621094 390.550781 295.191406 389.542969 294.730469 C 388.929688 294.460938 388.292969 294.242188 387.644531 294.070312 C 386.414062 293.738281 385.171875 293.457031 383.945312 293.132812 C 382.484375 292.78125 381.097656 292.234375 379.785156 291.492188 C 378.859375 290.96875 378.085938 290.273438 377.46875 289.40625 C 376.847656 288.539062 376.441406 287.582031 376.246094 286.535156 C 376.039062 285.679688 376.066406 284.828125 376.324219 283.988281 C 376.585938 283.144531 377.042969 282.429688 377.695312 281.835938 C 378.351562 281.246094 379.109375 280.863281 379.972656 280.6875 C 380.835938 280.511719 381.683594 280.570312 382.515625 280.863281 C 383.894531 281.351562 385.019531 282.179688 385.898438 283.347656 C 386.75 284.492188 387.699219 285.550781 388.742188 286.523438 C 389.40625 287.144531 390.164062 287.617188 391.015625 287.941406 C 391.863281 288.265625 392.742188 288.417969 393.652344 288.394531 C 396.414062 288.347656 398.808594 287.4375 400.582031 285.257812 C 404.984375 279.789062 406.304688 273.679688 404.105469 266.929688 C 403.742188 265.816406 403.207031 264.789062 402.507812 263.851562 C 401.808594 262.910156 400.976562 262.109375 400.015625 261.441406 C 398.675781 260.476562 397.25 259.648438 395.746094 258.964844 C 392.664062 257.59375 389.46875 256.546875 386.171875 255.828125 C 379.214844 254.261719 372.171875 253.382812 365.042969 253.1875 C 358.304688 252.9375 351.5625 252.972656 344.859375 253.96875 C 341.675781 254.4375 338.542969 255.140625 335.460938 256.078125 C 334.65625 256.308594 333.964844 256.722656 333.382812 257.324219 C 331.320312 259.40625 329.445312 261.644531 327.761719 264.039062 C 326.8125 265.394531 326.015625 266.828125 325.367188 268.351562 C 324.792969 269.660156 324.417969 271.027344 324.246094 272.449219 C 323.9375 275.441406 324.859375 278.070312 326.589844 280.445312 C 328.21875 282.601562 330.003906 284.621094 331.933594 286.507812 C 334.820312 289.414062 337.585938 289.15625 340.058594 285.890625 C 340.644531 285.117188 341.144531 284.277344 341.726562 283.496094 C 343 281.652344 344.6875 280.335938 346.785156 279.546875 C 347.957031 279.089844 349.171875 278.925781 350.421875 279.050781 C 351.675781 279.175781 352.832031 279.582031 353.886719 280.261719 C 356.320312 281.773438 357.035156 284.0625 355.761719 286.660156 C 353.972656 290.304688 351.078125 292.59375 346.953125 293.21875 C 346.058594 293.304688 345.171875 293.441406 344.292969 293.621094 C 343.667969 293.773438 343.089844 294.03125 342.558594 294.394531 C 342.027344 294.753906 341.574219 295.199219 341.199219 295.722656 C 340.828125 296.246094 340.558594 296.820312 340.390625 297.441406 C 340.222656 298.0625 340.171875 298.695312 340.230469 299.335938 C 340.359375 300.703125 340.785156 301.96875 341.503906 303.136719 C 342.3125 304.5 343.269531 305.75 344.378906 306.882812 C 347.972656 310.597656 352.183594 313.386719 357.007812 315.25 C 358.296875 315.839844 359.640625 316.234375 361.042969 316.4375 Z M 192.554688 136.441406 C 192.890625 136.488281 193.167969 136.386719 193.394531 136.132812 C 194.890625 134.9375 196.585938 134.210938 198.480469 133.945312 C 199.585938 133.769531 200.671875 133.476562 201.761719 133.320312 C 202.40625 133.25 202.984375 133.011719 203.492188 132.605469 C 204 132.199219 204.359375 131.6875 204.570312 131.074219 C 204.9375 130.25 205.238281 129.40625 205.46875 128.539062 C 205.8125 127.234375 206.0625 125.910156 206.21875 124.570312 C 206.632812 120.535156 206.785156 116.492188 205.949219 112.492188 C 205.53125 110.515625 204.921875 108.582031 204.425781 106.625 C 203.839844 104.359375 203.613281 102.054688 203.75 99.714844 C 203.839844 98.121094 204.269531 96.625 205.039062 95.222656 C 206.726562 92.140625 209.347656 90.746094 212.832031 91.007812 C 214.925781 91.167969 216.988281 91.511719 219.023438 92.035156 C 222.867188 93.015625 226.589844 94.375 230.378906 95.527344 C 231.945312 96.042969 233.53125 96.476562 235.140625 96.824219 C 235.65625 96.964844 236.167969 96.957031 236.675781 96.796875 C 237.183594 96.636719 237.609375 96.351562 237.949219 95.941406 C 238.449219 95.378906 238.9375 94.816406 239.398438 94.226562 C 240.710938 92.492188 241.90625 90.683594 242.988281 88.796875 C 247.628906 80.921875 251.625 72.703125 255.683594 64.519531 C 256.507812 62.90625 257.121094 61.21875 257.535156 59.453125 C 258.132812 56.722656 257.3125 55.339844 254.652344 54.550781 C 254.441406 54.476562 254.226562 54.421875 254.007812 54.386719 C 252.453125 54.144531 250.890625 53.988281 249.320312 53.917969 C 241.589844 53.734375 233.898438 54.175781 226.238281 55.238281 C 221.929688 55.796875 217.695312 56.714844 213.542969 57.988281 C 211.023438 58.757812 208.648438 59.832031 206.40625 61.214844 C 205.300781 61.871094 204.335938 62.691406 203.507812 63.675781 C 202.679688 64.65625 202.039062 65.75 201.582031 66.949219 C 200.921875 68.78125 200.265625 70.613281 199.707031 72.480469 C 198.289062 77.527344 197.15625 82.636719 196.304688 87.8125 C 195.328125 93.34375 194.527344 98.902344 193.871094 104.476562 C 193.402344 108.417969 192.996094 112.367188 192.675781 116.324219 C 192.25 121.625 191.871094 126.929688 192.0625 132.253906 C 192.078125 133.667969 192.242188 135.0625 192.554688 136.441406 Z M 444.085938 128.503906 C 442.566406 128.507812 441.066406 128.679688 439.585938 129.015625 C 432.238281 130.5625 426 134.003906 421.09375 139.738281 C 416.25 145.402344 413.039062 151.96875 410.808594 159.027344 C 410.207031 160.910156 409.992188 162.835938 410.171875 164.804688 C 410.378906 166.972656 411.148438 168.902344 412.933594 170.253906 C 416.253906 172.757812 420.566406 171.851562 421.941406 167.910156 C 422.269531 166.988281 422.546875 166.050781 422.765625 165.097656 C 423.109375 163.566406 423.371094 162.015625 423.675781 160.46875 C 424.613281 155.632812 427.421875 152.425781 432.136719 150.902344 C 434.5 150.160156 436.921875 149.785156 439.402344 149.785156 C 441.761719 149.738281 444.011719 150.207031 446.15625 151.191406 C 446.816406 151.5625 447.527344 151.792969 448.28125 151.878906 C 450.808594 151.949219 452.855469 153.144531 454.792969 154.605469 C 456.226562 155.691406 457.601562 156.824219 459.007812 157.9375 C 460.691406 159.320312 462.496094 160.523438 464.417969 161.546875 C 466.714844 162.765625 469.160156 163.347656 471.761719 163.285156 C 473.015625 163.273438 474.210938 162.992188 475.347656 162.449219 C 476.480469 161.90625 477.445312 161.152344 478.242188 160.179688 C 478.628906 159.808594 478.863281 159.355469 478.949219 158.828125 C 479.035156 158.300781 478.957031 157.796875 478.710938 157.320312 C 474.496094 147.054688 467.894531 138.71875 458.472656 132.757812 C 456.335938 131.355469 454.042969 130.292969 451.59375 129.570312 C 449.144531 128.84375 446.640625 128.488281 444.085938 128.503906 Z M 525.769531 101.71875 C 525.804688 99.515625 525.585938 97.34375 525.105469 95.195312 C 522.707031 83.632812 516.636719 74.378906 507.277344 67.265625 C 504.882812 65.402344 502.226562 64.050781 499.3125 63.210938 C 497.632812 62.75 495.929688 62.640625 494.207031 62.882812 C 493.453125 62.996094 492.753906 63.257812 492.117188 63.671875 C 491.871094 63.800781 491.703125 63.996094 491.617188 64.257812 C 491.53125 64.523438 491.546875 64.78125 491.671875 65.03125 C 491.90625 65.582031 492.207031 66.09375 492.578125 66.566406 C 493.515625 67.640625 494.453125 68.699219 495.492188 69.675781 C 497.367188 71.480469 499.347656 73.222656 501.285156 74.988281 C 503.761719 77.171875 506.035156 79.554688 508.101562 82.128906 C 508.902344 83.125 509.574219 84.203125 510.109375 85.363281 C 510.414062 85.992188 510.632812 86.648438 510.769531 87.332031 C 510.90625 88.015625 510.953125 88.703125 510.914062 89.402344 C 510.875 90.097656 510.75 90.777344 510.542969 91.441406 C 510.332031 92.105469 510.039062 92.734375 509.671875 93.328125 C 508.988281 94.5 508.167969 95.558594 507.203125 96.511719 C 505.96875 97.714844 504.699219 98.855469 503.453125 100.042969 C 501.695312 101.671875 499.878906 103.238281 498.179688 104.921875 C 495.96875 107.179688 494.058594 109.667969 492.453125 112.390625 C 491.660156 113.6875 491.445312 114.96875 492.316406 116.378906 C 493.140625 117.726562 493.839844 119.132812 494.425781 120.597656 C 495.128906 122.375 495.367188 124.210938 495.132812 126.105469 C 494.957031 127.375 494.585938 128.585938 494.019531 129.738281 C 493.503906 130.898438 492.925781 132.03125 492.421875 133.199219 C 492.261719 133.566406 491.808594 133.976562 492.238281 134.386719 C 492.539062 134.675781 492.9375 134.386719 493.292969 134.320312 C 494.886719 133.921875 496.472656 133.523438 498.070312 133.140625 C 500.035156 132.671875 502.011719 132.265625 503.960938 131.734375 C 505.6875 131.300781 507.363281 130.710938 508.980469 129.960938 C 510.597656 129.214844 512.132812 128.320312 513.582031 127.28125 C 515.03125 126.242188 516.367188 125.078125 517.597656 123.789062 C 518.828125 122.496094 519.925781 121.101562 520.890625 119.605469 C 524.300781 114.351562 525.769531 108.546875 525.753906 101.71875 Z M 262.664062 156.214844 C 263.671875 156.066406 264.472656 155.929688 265.277344 155.828125 C 267.722656 155.519531 270.179688 154.980469 272.640625 155.265625 C 273.621094 155.398438 274.574219 155.300781 275.5 154.960938 C 276.425781 154.625 277.222656 154.089844 277.886719 153.359375 C 278.945312 152.300781 280.054688 151.289062 281.164062 150.304688 C 282.382812 149.222656 283.765625 148.425781 285.3125 147.914062 C 286.859375 147.398438 288.441406 147.214844 290.066406 147.355469 C 292.824219 147.535156 295.28125 148.550781 297.636719 149.910156 C 298.605469 150.425781 299.445312 151.101562 300.148438 151.945312 C 300.855469 152.785156 301.375 153.730469 301.710938 154.773438 C 302.054688 155.839844 302.535156 156 303.546875 155.601562 C 304.054688 155.390625 304.40625 155.027344 304.601562 154.515625 C 304.875 153.808594 304.992188 153.074219 304.949219 152.320312 C 305.035156 149.902344 304.453125 147.566406 304.011719 145.214844 C 303.136719 140.328125 300.3125 136.957031 295.902344 134.910156 C 291.574219 132.886719 287.089844 132.875 282.558594 134.222656 C 280.90625 134.699219 279.34375 135.390625 277.875 136.296875 C 271.316406 140.433594 266.324219 145.964844 263.351562 153.199219 C 263.003906 154.0625 262.53125 154.941406 262.664062 156.214844 Z M 428.800781 165.058594 C 428.238281 167.980469 429.425781 170.082031 432.113281 170.984375 C 433.503906 171.433594 434.90625 171.484375 436.328125 171.144531 C 441.949219 169.917969 445.910156 166.523438 448.6875 161.609375 C 449.28125 160.519531 449.484375 159.359375 449.296875 158.132812 C 449.074219 156.585938 448.367188 155.308594 447.167969 154.304688 C 446.230469 153.441406 445.070312 153.671875 443.96875 153.667969 C 443.21875 153.667969 442.921875 153.96875 442.761719 154.730469 C 442.667969 155.246094 442.609375 155.765625 442.59375 156.285156 C 442.546875 157.105469 442.5625 157.929688 442.488281 158.75 C 442.148438 162.550781 440.222656 164.742188 436.511719 165.578125 C 434.507812 166.042969 432.515625 166.007812 430.527344 165.480469 C 429.949219 165.332031 429.4375 164.917969 428.800781 165.058594 Z M 280.722656 158.183594 C 280.558594 159.128906 280.597656 160.066406 280.839844 160.996094 C 281.058594 161.949219 281.414062 162.851562 281.90625 163.695312 C 282.402344 164.539062 283.015625 165.289062 283.742188 165.945312 C 284.46875 166.601562 285.28125 167.128906 286.171875 167.535156 C 287.0625 167.9375 287.996094 168.199219 288.96875 168.3125 C 292.371094 168.730469 295.175781 167.789062 297.402344 165.191406 C 298.835938 163.480469 299.6875 161.515625 299.964844 159.300781 C 300.003906 159.078125 300.003906 158.855469 299.964844 158.632812 C 299.957031 158.515625 299.902344 158.417969 299.8125 158.34375 C 299.71875 158.269531 299.613281 158.238281 299.496094 158.253906 C 299.203125 158.28125 298.917969 158.359375 298.648438 158.480469 C 297.773438 158.976562 297.136719 159.691406 296.746094 160.621094 C 296.0625 161.945312 295.023438 162.871094 293.625 163.398438 C 289.039062 165.273438 283.933594 163.164062 281.953125 159.796875 C 281.648438 159.308594 281.519531 158.691406 280.722656 158.183594 Z M 280.722656 158.183594 " fill-opacity="1" fill-rule="nonzero"/></g><g fill="#fffffe" fill-opacity="1"><g transform="translate(100.59083, 556.483269)"><g><path d="M 4.5625 -59.65625 L 11.3125 -59.65625 L 11.3125 1.515625 C 11.3125 4.554688 10.628906 7.359375 9.265625 9.921875 C 7.898438 12.492188 5.898438 14.554688 3.265625 16.109375 C 0.640625 17.660156 -2.535156 18.4375 -6.265625 18.4375 L -6.265625 16.8125 C -3.097656 16.8125 -0.753906 16.175781 0.765625 14.90625 C 2.285156 13.644531 3.296875 11.875 3.796875 9.59375 C 4.304688 7.3125 4.5625 4.617188 4.5625 1.515625 Z M 4.5625 -59.65625 "/></g></g></g><g fill="#fffffe" fill-opacity="1"><g transform="translate(116.835057, 556.483269)"><g><path d="M 8.640625 1.515625 L 4.28125 -2.84375 L 8.640625 -7.21875 L 13.015625 -2.84375 Z M 8.640625 1.515625 "/></g></g></g><g fill="#fffffe" fill-opacity="1"><g transform="translate(134.02923, 556.483269)"><g><path d="M 2.375 -4.46875 C 4.019531 -3.132812 6.09375 -1.894531 8.59375 -0.75 C 11.09375 0.382812 14.375 0.953125 18.4375 0.953125 C 21.03125 0.953125 23.429688 0.445312 25.640625 -0.5625 C 27.859375 -1.582031 29.648438 -3.117188 31.015625 -5.171875 C 32.378906 -7.234375 33.0625 -9.816406 33.0625 -12.921875 C 33.0625 -15.578125 32.519531 -17.757812 31.4375 -19.46875 C 30.363281 -21.1875 28.925781 -22.613281 27.125 -23.75 C 25.320312 -24.882812 23.34375 -25.863281 21.1875 -26.6875 C 19.03125 -27.519531 16.859375 -28.394531 14.671875 -29.3125 C 12.492188 -30.226562 10.5 -31.316406 8.6875 -32.578125 C 6.882812 -33.847656 5.441406 -35.476562 4.359375 -37.46875 C 3.285156 -39.46875 2.75 -41.988281 2.75 -45.03125 C 2.75 -48.007812 3.316406 -50.539062 4.453125 -52.625 C 5.597656 -54.71875 7.085938 -56.410156 8.921875 -57.703125 C 10.765625 -59.003906 12.726562 -59.957031 14.8125 -60.5625 C 16.90625 -61.164062 18.90625 -61.46875 20.8125 -61.46875 C 23.34375 -61.46875 25.601562 -61.164062 27.59375 -60.5625 C 29.59375 -59.957031 31.175781 -59.351562 32.34375 -58.75 C 33.519531 -58.15625 34.109375 -57.859375 34.109375 -57.859375 L 34.203125 -55.953125 C 34.203125 -55.953125 33.644531 -56.269531 32.53125 -56.90625 C 31.425781 -57.539062 29.875 -58.1875 27.875 -58.84375 C 25.882812 -59.507812 23.53125 -59.84375 20.8125 -59.84375 C 16.75 -59.84375 13.59375 -58.640625 11.34375 -56.234375 C 9.101562 -53.828125 7.984375 -50.914062 7.984375 -47.5 C 7.984375 -44.644531 8.722656 -42.332031 10.203125 -40.5625 C 11.691406 -38.789062 13.59375 -37.316406 15.90625 -36.140625 C 18.21875 -34.972656 20.671875 -33.863281 23.265625 -32.8125 C 25.867188 -31.769531 28.328125 -30.566406 30.640625 -29.203125 C 32.953125 -27.847656 34.832031 -26.0625 36.28125 -23.84375 C 37.738281 -21.625 38.46875 -18.773438 38.46875 -15.296875 C 38.46875 -11.742188 37.519531 -8.640625 35.625 -5.984375 C 33.726562 -3.328125 31.242188 -1.269531 28.171875 0.1875 C 25.097656 1.644531 21.851562 2.375 18.4375 2.375 C 15.007812 2.375 12.109375 1.992188 9.734375 1.234375 C 7.359375 0.472656 5.535156 -0.285156 4.265625 -1.046875 C 3.003906 -1.804688 2.375 -2.1875 2.375 -2.1875 Z M 2.375 -4.46875 "/></g></g></g><g fill="#fffffe" fill-opacity="1"><g transform="translate(176.302202, 556.483269)"><g><path d="M 49.6875 0.09375 L 39.421875 -23.9375 L 16.15625 -23.9375 L 5.515625 0.09375 L 3.328125 0.09375 L 30.40625 -60.796875 L 30.96875 -60.796875 L 57 0.09375 Z M 16.90625 -25.453125 L 38.765625 -25.453125 L 28.03125 -50.546875 Z M 16.90625 -25.453125 "/></g></g></g><g fill="#fffffe" fill-opacity="1"><g transform="translate(236.719315, 556.483269)"><g><path d="M 11.40625 -1.515625 L 35.15625 -1.515625 L 35.15625 0.09375 L 4.5625 0.09375 L 4.5625 -59.65625 L 11.40625 -59.65625 Z M 11.40625 -1.515625 "/></g></g></g><g fill="#fffffe" fill-opacity="1"><g transform="translate(275.47746, 556.483269)"><g/></g></g><g fill="#fffffe" fill-opacity="1"><g transform="translate(299.226326, 556.483269)"><g><path d="M 29.265625 -59.65625 C 31.410156 -59.65625 33.828125 -59.460938 36.515625 -59.078125 C 39.210938 -58.703125 41.90625 -57.976562 44.59375 -56.90625 C 47.289062 -55.832031 49.75 -54.25 51.96875 -52.15625 C 54.1875 -50.0625 55.972656 -47.269531 57.328125 -43.78125 C 58.691406 -40.300781 59.375 -35.96875 59.375 -30.78125 C 59.375 -25.394531 58.613281 -20.878906 57.09375 -17.234375 C 55.570312 -13.597656 53.578125 -10.65625 51.109375 -8.40625 C 48.640625 -6.15625 45.992188 -4.425781 43.171875 -3.21875 C 40.359375 -2.019531 37.632812 -1.195312 35 -0.75 C 32.375 -0.3125 30.125 -0.0625 28.25 0 C 26.382812 0.0625 25.203125 0.09375 24.703125 0.09375 L 4.5625 0.09375 L 4.5625 -59.65625 Z M 24.609375 -1.515625 C 27.835938 -1.515625 31.097656 -1.957031 34.390625 -2.84375 C 37.679688 -3.738281 40.6875 -5.257812 43.40625 -7.40625 C 46.132812 -9.5625 48.320312 -12.539062 49.96875 -16.34375 C 51.613281 -20.144531 52.4375 -24.957031 52.4375 -30.78125 C 52.4375 -35.40625 51.863281 -39.332031 50.71875 -42.5625 C 49.582031 -45.789062 48.046875 -48.414062 46.109375 -50.4375 C 44.179688 -52.46875 42.046875 -54.019531 39.703125 -55.09375 C 37.359375 -56.175781 34.96875 -56.921875 32.53125 -57.328125 C 30.09375 -57.742188 27.800781 -57.953125 25.65625 -57.953125 L 11.40625 -57.953125 L 11.40625 -1.515625 Z M 24.609375 -1.515625 "/></g></g></g><g fill="#fffffe" fill-opacity="1"><g transform="translate(362.968263, 556.483269)"><g><path d="M 34.859375 -58.046875 L 11.40625 -58.046875 L 11.40625 -31.921875 L 32.296875 -31.921875 L 32.296875 -30.3125 L 11.40625 -30.3125 L 11.40625 -1.515625 L 34.859375 -1.515625 L 34.859375 0.09375 L 4.5625 0.09375 L 4.5625 -59.65625 L 34.859375 -59.65625 Z M 34.859375 -58.046875 "/></g></g></g><g fill="#fffffe" fill-opacity="1"><g transform="translate(401.821404, 556.483269)"><g><path d="M 3.328125 -4.46875 C 4.972656 -3.132812 7.046875 -1.894531 9.546875 -0.75 C 12.046875 0.382812 15.320312 0.953125 19.375 0.953125 C 21.976562 0.953125 24.382812 0.445312 26.59375 -0.5625 C 28.8125 -1.582031 30.601562 -3.117188 31.96875 -5.171875 C 33.332031 -7.234375 34.015625 -9.816406 34.015625 -12.921875 C 34.015625 -15.578125 33.472656 -17.757812 32.390625 -19.46875 C 31.316406 -21.1875 29.875 -22.613281 28.0625 -23.75 C 26.257812 -24.882812 24.28125 -25.863281 22.125 -26.6875 C 19.976562 -27.519531 17.8125 -28.394531 15.625 -29.3125 C 13.4375 -30.226562 11.441406 -31.316406 9.640625 -32.578125 C 7.835938 -33.847656 6.394531 -35.476562 5.3125 -37.46875 C 4.238281 -39.46875 3.703125 -41.988281 3.703125 -45.03125 C 3.703125 -48.007812 4.269531 -50.539062 5.40625 -52.625 C 6.550781 -54.71875 8.039062 -56.410156 9.875 -57.703125 C 11.71875 -59.003906 13.679688 -59.957031 15.765625 -60.5625 C 17.859375 -61.164062 19.851562 -61.46875 21.75 -61.46875 C 24.289062 -61.46875 26.554688 -61.164062 28.546875 -60.5625 C 30.546875 -59.957031 32.128906 -59.351562 33.296875 -58.75 C 34.472656 -58.15625 35.0625 -57.859375 35.0625 -57.859375 L 35.15625 -55.953125 C 35.15625 -55.953125 34.597656 -56.269531 33.484375 -56.90625 C 32.378906 -57.539062 30.828125 -58.1875 28.828125 -58.84375 C 26.835938 -59.507812 24.476562 -59.84375 21.75 -59.84375 C 17.695312 -59.84375 14.546875 -58.640625 12.296875 -56.234375 C 10.054688 -53.828125 8.9375 -50.914062 8.9375 -47.5 C 8.9375 -44.644531 9.675781 -42.332031 11.15625 -40.5625 C 12.644531 -38.789062 14.546875 -37.316406 16.859375 -36.140625 C 19.171875 -34.972656 21.625 -33.863281 24.21875 -32.8125 C 26.820312 -31.769531 29.28125 -30.566406 31.59375 -29.203125 C 33.90625 -27.847656 35.785156 -26.0625 37.234375 -23.84375 C 38.691406 -21.625 39.421875 -18.773438 39.421875 -15.296875 C 39.421875 -11.742188 38.46875 -8.640625 36.5625 -5.984375 C 34.664062 -3.328125 32.179688 -1.269531 29.109375 0.1875 C 26.046875 1.644531 22.800781 2.375 19.375 2.375 C 15.957031 2.375 13.0625 1.992188 10.6875 1.234375 C 8.3125 0.472656 6.488281 -0.285156 5.21875 -1.046875 C 3.957031 -1.804688 3.328125 -2.1875 3.328125 -2.1875 Z M 3.328125 -4.46875 "/></g></g></g><g fill="#fffffe" fill-opacity="1"><g transform="translate(445.044334, 556.483269)"><g><path d="M 5.515625 0.09375 L 5.515625 -59.65625 L 12.34375 -59.65625 L 12.34375 0.09375 Z M 5.515625 0.09375 "/></g></g></g><g fill="#fffffe" fill-opacity="1"><g transform="translate(463.28346, 556.483269)"><g><path d="M 40.28125 -30.3125 L 55.578125 -30.3125 L 55.578125 -3.234375 C 55.578125 -3.234375 54.738281 -2.820312 53.0625 -2 C 51.382812 -1.175781 49.054688 -0.351562 46.078125 0.46875 C 43.097656 1.289062 39.613281 1.703125 35.625 1.703125 C 33.21875 1.703125 30.601562 1.429688 27.78125 0.890625 C 24.96875 0.359375 22.148438 -0.597656 19.328125 -1.984375 C 16.515625 -3.378906 13.9375 -5.265625 11.59375 -7.640625 C 9.25 -10.015625 7.363281 -12.988281 5.9375 -16.5625 C 4.507812 -20.144531 3.796875 -24.472656 3.796875 -29.546875 C 3.796875 -35.054688 4.679688 -39.789062 6.453125 -43.75 C 8.234375 -47.707031 10.65625 -50.9375 13.71875 -53.4375 C 16.789062 -55.9375 20.289062 -57.785156 24.21875 -58.984375 C 28.144531 -60.191406 32.234375 -60.796875 36.484375 -60.796875 C 40.085938 -60.796875 43.203125 -60.601562 45.828125 -60.21875 C 48.460938 -59.84375 50.472656 -59.460938 51.859375 -59.078125 C 53.253906 -58.703125 53.953125 -58.515625 53.953125 -58.515625 L 53.953125 -56.53125 C 53.953125 -56.53125 53.269531 -56.75 51.90625 -57.1875 C 50.550781 -57.632812 48.570312 -58.078125 45.96875 -58.515625 C 43.375 -58.960938 40.210938 -59.1875 36.484375 -59.1875 C 34.515625 -59.1875 32.359375 -58.945312 30.015625 -58.46875 C 27.671875 -58 25.375 -57.128906 23.125 -55.859375 C 20.882812 -54.585938 18.828125 -52.84375 16.953125 -50.625 C 15.085938 -48.414062 13.582031 -45.582031 12.4375 -42.125 C 11.300781 -38.675781 10.734375 -34.484375 10.734375 -29.546875 C 10.734375 -22.140625 11.859375 -16.265625 14.109375 -11.921875 C 16.359375 -7.585938 19.410156 -4.484375 23.265625 -2.609375 C 27.128906 -0.742188 31.535156 0.1875 36.484375 0.1875 C 38.890625 0.1875 41.132812 -0.03125 43.21875 -0.46875 C 45.3125 -0.914062 47.148438 -1.425781 48.734375 -2 L 48.734375 -28.78125 L 40.28125 -28.78125 Z M 40.28125 -30.3125 "/></g></g></g><g fill="#fffffe" fill-opacity="1"><g transform="translate(523.510592, 556.483269)"><g><path d="M 53.109375 -59.65625 L 53.109375 1.703125 L 52.8125 1.703125 L 6.171875 -49.96875 L 6.171875 0.09375 L 4.5625 0.09375 L 4.5625 -60.796875 L 4.84375 -60.796875 L 51.484375 -9.125 L 51.484375 -59.65625 Z M 53.109375 -59.65625 "/></g></g></g><g fill="#fffffe" fill-opacity="1"><g transform="translate(581.552807, 556.483269)"><g><path d="M 3.421875 -58.046875 L 3.421875 -59.65625 L 25.65625 -59.65625 L 25.65625 -58.046875 L 16.4375 -58.046875 L 16.4375 -29.734375 L 12.640625 -29.734375 L 12.640625 -58.046875 Z M 62.609375 -29.734375 L 58.8125 -29.734375 L 56.140625 -52.625 L 44.171875 -30.015625 L 43.796875 -30.015625 L 32.203125 -52.4375 L 29.171875 -29.734375 L 27.546875 -29.734375 L 31.640625 -59.65625 L 32.6875 -59.65625 L 45.3125 -35.4375 L 58.046875 -59.65625 L 59.09375 -59.65625 Z M 43.796875 -30.015625 L 44.171875 -30.015625 Z M 43.796875 -30.015625 "/></g></g></g></svg>